<svg width="350" height="139" viewBox="0 0 350 139" fill="none" xmlns="http://www.w3.org/2000/svg">
<path d="M103.55 2.82959H29.4686C13.1935 2.82959 0 16.0231 0 32.2982V106.379C0 122.654 13.1935 135.848 29.4686 135.848H103.55C119.825 135.848 133.018 122.654 133.018 106.379V32.2982C133.018 16.0231 119.825 2.82959 103.55 2.82959Z" fill="#EF7D19"/>
<path d="M92.7499 110.835C92.092 113.02 86.8413 113.964 85.4883 112.275C86.6923 112.052 92.7499 110.835 92.7499 110.835Z" fill="white"/>
<path d="M96.1761 105.622C95.8906 106.205 95.6051 106.789 95.2948 107.36C94.4755 108.08 93.4701 108.601 92.3902 108.874C91.5337 109.085 90.6772 109.284 89.8207 109.458C87.636 109.917 85.4513 110.265 83.279 110.5C83.0679 110.327 82.8569 110.153 82.6707 109.967C82.2239 109.545 81.8391 109.085 81.5039 108.601C82.3356 108.527 83.1797 108.427 84.0113 108.328C85.8112 108.092 87.5987 107.794 89.3986 107.422C91.6826 106.95 93.9666 106.354 96.1885 105.634H96.1761V105.622Z" fill="white"/>
<path d="M98.3116 100.458C98.113 101.029 97.9143 101.588 97.6909 102.134C97.1323 102.841 96.3503 103.363 95.4566 103.648C93.396 104.294 91.3106 104.84 89.2252 105.287L88.9521 105.336C87.8598 105.56 86.7674 105.771 85.6875 105.932C83.9497 106.205 82.2118 106.416 80.4864 106.553C80.3499 106.143 80.2754 105.746 80.2754 105.374C80.2754 105.051 80.3002 104.753 80.3623 104.467C82.5966 104.294 84.8558 103.996 87.115 103.574C87.5867 103.487 88.0584 103.4 88.5301 103.301C88.9894 103.201 89.4486 103.114 89.9079 102.99C92.6264 102.37 95.32 101.563 97.9516 100.595C98.0757 100.545 98.1999 100.508 98.324 100.458H98.3116Z" fill="white"/>
<path d="M77.656 36.0096H77.6188C77.085 36.1958 76.5016 35.9227 76.303 35.3889C75.8313 34.1352 75.2851 32.9311 74.6645 31.7643C74.6645 31.7519 74.6645 31.7395 74.6396 31.7271C75.732 32.4718 76.8864 33.3283 78.1153 34.2717C78.1153 34.309 78.1401 34.3338 78.1525 34.3586C78.2022 34.4579 78.2394 34.5572 78.2767 34.6565C78.4753 35.2027 78.2022 35.7985 77.6684 36.0096H77.656Z" fill="white"/>
<path d="M81.8396 37.8466H81.8272C81.4175 37.9335 80.9955 38.0204 80.5859 38.1197C80.0273 38.2563 79.4563 37.9087 79.3197 37.3501C79.1832 36.7791 79.5308 36.2205 80.0893 36.084C80.288 36.2826 80.499 36.4936 80.6976 36.7046C80.8341 36.8412 80.9707 36.9901 81.1072 37.1267C81.3431 37.3625 81.5789 37.6108 81.8148 37.8466H81.8396Z" fill="white"/>
<path d="M89.7715 99.6142C89.8335 100.247 90.4418 100.694 91.0624 100.545C93.1354 100.011 95.196 99.366 97.2317 98.6336C97.6662 98.4722 98.0882 98.3109 98.4979 98.1371C98.833 97.9881 99.0564 97.6902 99.1061 97.3302V97.3054C99.2178 96.511 98.4234 95.8903 97.691 96.2006C97.2938 96.362 96.8966 96.5234 96.4869 96.6723C94.5257 97.3923 92.5396 98.0129 90.5411 98.5343C90.057 98.6584 89.7218 99.1177 89.7715 99.6266V99.6515V99.6142Z" fill="white"/>
<path d="M81.8271 102.221C83.9125 102.01 85.9979 101.675 88.0957 101.24L88.2944 101.203C86.2586 100.26 83.5153 100.818 81.8271 102.221Z" fill="white"/>
<path d="M73.5598 38.9143H73.535C72.964 39.026 72.4178 38.6412 72.3061 38.0702C71.6979 34.7063 70.469 31.4913 68.7188 28.5742C69.8111 29.0459 70.8786 29.5549 71.9213 30.1259C73.0633 32.5216 73.8826 35.0662 74.3667 37.6978C74.4536 38.2564 74.106 38.7902 73.5474 38.9143H73.5598Z" fill="white"/>
<path d="M85.0537 41.8066H85.0165C83.8 41.8811 82.1367 42.1169 80.9326 42.3652C79.5796 42.6507 78.2265 43.0355 76.9356 43.5196C76.4018 43.7182 75.7936 43.4327 75.595 42.8865C75.3964 42.3403 75.6695 41.7321 76.2156 41.5335C77.5935 41.0246 79.0458 40.6149 80.5106 40.3046C81.3298 40.1308 82.6332 39.8205 83.4524 39.7212H83.4773C84.011 40.3543 84.52 41.1239 85.0537 41.7942V41.8066Z" fill="white"/>
<path d="M89.2499 95.4932C89.3368 96.1015 89.945 96.4987 90.5409 96.3373C92.2911 95.8656 94.0414 95.3194 95.7668 94.6864C96.8591 94.2892 97.9266 93.8175 98.9445 93.2713C99.2672 93.0975 99.4783 92.7499 99.4907 92.3775V92.3527C99.5155 91.5583 98.6714 91.0369 97.9763 91.4093C97.0329 91.9058 96.0523 92.3403 95.0468 92.7127C93.3835 93.3209 91.6953 93.8547 90.0071 94.314C89.4982 94.4505 89.1754 94.947 89.2499 95.4684V95.4932Z" fill="white"/>
<path d="M85.6744 46.002C83.2166 46.1013 80.7589 46.573 78.3756 47.4419C77.9039 47.6281 77.4198 47.7647 76.9356 47.864C75.9054 48.075 74.9744 48.0874 74.2296 47.864C71.9084 47.2061 69.0906 43.8794 68.1596 38.8148C67.2907 34.0482 65.0563 29.7533 61.7793 26.377C62.9834 26.6376 64.175 26.948 65.3418 27.3203C65.3915 27.3824 65.4411 27.4445 65.4784 27.4941C67.8493 30.6719 69.4878 34.3958 70.2202 38.43C71.027 42.8739 73.3855 45.4434 74.7882 45.8406C75.024 45.9151 75.5702 46.002 76.4888 45.8034C76.8736 45.7289 77.246 45.6048 77.6308 45.4682C80.2003 44.5248 82.8691 44.0035 85.5379 43.8918C85.8855 43.8918 86.2206 44.0407 86.4192 44.3138C86.4192 44.3138 86.4192 44.3138 86.4316 44.3386C86.9282 45.009 86.4689 45.9523 85.6372 45.9896H85.6744V46.002Z" fill="white"/>
<path d="M88.5543 91.3721C88.666 91.9679 89.2619 92.3527 89.8453 92.1913C91.3597 91.7817 92.8492 91.2976 94.314 90.7514C95.9649 90.1432 97.5414 89.3487 98.9813 88.3805C99.2792 88.1819 99.453 87.8219 99.4406 87.462V87.4371C99.4033 86.6303 98.4972 86.1834 97.8269 86.6427C96.5235 87.524 95.096 88.244 93.594 88.7902C92.1914 89.3115 90.7514 89.7708 89.3115 90.168C88.7902 90.3046 88.4674 90.8135 88.5667 91.3472V91.3721H88.5543Z" fill="white"/>
<path d="M25.2728 56.5781C26.0549 58.8373 27.6065 60.7737 29.7043 61.9406C29.7043 61.9406 29.7291 61.9406 29.7415 61.9654C27.4948 57.2608 25.8438 52.1342 24.8508 46.7097C24.7391 46.1015 24.6522 45.456 24.6025 44.7609L24.5777 44.6368C24.4536 44.0658 23.9074 43.7182 23.3364 43.8299C22.7902 43.9416 22.4551 44.4754 22.5171 44.9719C22.5792 45.7291 22.6785 46.4118 22.8026 47.0821C23.3985 50.3592 24.2301 53.5369 25.2852 56.5905L25.2728 56.5781Z" fill="white"/>
<path d="M89.3245 49.8625C89.1135 50.1107 88.7784 50.2721 88.3935 50.2473C86.4944 50.0735 84.5579 50.1852 82.6463 50.5824C81.6781 50.781 80.7347 51.0541 79.8285 51.3893C79.1706 51.6375 78.4879 51.8237 77.8052 51.9603C76.4149 52.2458 75.1116 52.2954 73.9199 52.072H73.9572C74.3544 51.9851 74.6771 51.712 74.8261 51.3024C74.975 50.8307 74.8261 50.3341 74.4413 50.0486C75.3226 50.1852 76.3156 50.1479 77.3832 49.9245C77.9666 49.8004 78.5624 49.6266 79.121 49.4156C80.1265 49.0556 81.1691 48.7577 82.2367 48.5343C84.3469 48.0874 86.4943 47.9757 88.6046 48.1619H88.6294C88.9397 48.1991 89.2252 48.3729 89.399 48.646C89.5107 48.8322 89.5231 48.8322 89.4114 48.6708C89.6721 49.0804 89.5976 49.5521 89.3369 49.8749H89.3245V49.8625Z" fill="white"/>
<path d="M70.7538 49.5026C70.4683 49.9371 70.518 50.5081 70.8407 50.8929C67.5761 48.8447 64.9693 44.6243 64.0632 39.5722C62.946 33.4898 59.0731 28.3632 53.7852 25.5454H53.8348C55.2002 25.5454 56.5409 25.6199 57.869 25.7564C58.2166 25.9799 58.5394 26.2281 58.8621 26.5012C62.5736 29.7162 65.2176 34.1601 66.1237 39.1998C66.9182 43.5816 69.078 47.231 71.7468 48.9937C71.362 48.9937 70.9772 49.1675 70.7538 49.5026Z" fill="white"/>
<path d="M102.159 78.996C101.886 79.4801 101.588 79.927 101.265 80.3738C101.129 80.56 101.005 80.7462 100.868 80.9324C100.384 81.5779 99.8503 82.1861 99.2669 82.7571C99.2173 82.8316 99.1428 82.8937 99.0683 82.9557C97.3056 84.6439 95.2078 85.9597 92.8618 86.8286C92.5142 86.9527 92.1666 87.0769 91.8191 87.201C90.9005 87.5237 89.9571 87.8092 89.0261 88.0823C88.4551 88.2313 87.8717 87.8713 87.76 87.3003V87.2258C87.6359 86.7045 87.9586 86.208 88.4675 86.0466C89.6095 85.7363 90.7516 85.3639 91.8687 84.9542C91.9556 84.9294 92.0425 84.8922 92.1294 84.8673C94.7361 83.9115 96.9953 82.3227 98.7332 80.2497C99.3166 79.5421 99.8627 78.7849 100.322 77.9781C100.446 77.7547 100.632 77.5933 100.856 77.5188C101.092 77.4195 101.352 77.4195 101.601 77.5188L101.936 77.7174H101.961C102.296 78.0402 102.383 78.5615 102.134 78.996H102.159Z" fill="white"/>
<path d="M101.626 77.5063L101.961 77.705C101.887 77.6305 101.787 77.5808 101.688 77.5312L101.626 77.5063Z" fill="white"/>
<path d="M100.483 83.3779L102.432 84.3709C102.978 83.8123 103.463 83.1917 103.909 82.5338C104.232 82.0993 104.53 81.64 104.803 81.1559C105.101 80.6346 104.89 79.9394 104.319 79.7036L104.257 79.6788C103.773 79.4677 103.227 79.6788 102.966 80.138C102.494 80.9449 101.961 81.7021 101.377 82.4096C101.092 82.7448 100.794 83.0799 100.483 83.3779Z" fill="white"/>
<path d="M103.736 85.0659L105.648 86.0465C105.97 85.6741 106.268 85.2769 106.554 84.8673C106.877 84.4204 107.174 83.9735 107.448 83.4894C107.745 82.9556 107.534 82.2729 106.963 82.0371L106.901 82.0123C106.417 81.8012 105.871 82.0123 105.61 82.4715C105.139 83.2784 104.617 84.0356 104.022 84.7431C103.922 84.8548 103.823 84.979 103.724 85.0783L103.736 85.0659Z" fill="white"/>
<path d="M107.038 86.754L108.937 87.7347C109.123 87.4988 109.31 87.2505 109.483 86.9899C109.806 86.5554 110.104 86.0961 110.377 85.6244C110.688 85.0907 110.464 84.408 109.893 84.1597L109.843 84.1349C109.347 83.9363 108.801 84.1349 108.552 84.5941C108.118 85.3513 107.609 86.0837 107.038 86.754Z" fill="white"/>
<path d="M28.9717 45.9524C30.2006 52.7051 32.5343 58.9613 35.7989 64.4479H35.7741C33.8749 63.9265 32.3109 62.5487 31.4792 60.7612C29.4062 56.2925 27.8422 51.4514 26.9112 46.3248C26.2036 42.514 26.7374 38.7032 28.3759 35.3268C30.5979 33.3159 33.0681 31.5657 35.712 30.1382C34.2101 31.3547 32.8074 32.6829 31.5413 34.0855C29.1083 37.5364 28.2021 41.7444 28.9593 45.9524H28.9717Z" fill="white"/>
<path d="M77.1719 56.3176C75.3348 56.541 73.5721 56.4045 71.9584 55.9452C66.0746 54.2694 61.3576 48.1374 59.9301 40.3172C58.3785 31.7894 50.1735 26.1042 41.6333 27.6559C41.4843 27.6807 41.3726 27.7055 41.2361 27.7303C41.0995 27.7552 40.9754 27.7924 40.8389 27.8172C43.3835 26.8862 46.0648 26.2283 48.8329 25.856C55.3746 27.5193 60.6998 32.8693 61.9907 39.9324C63.2693 46.9582 67.4028 52.4447 72.517 53.9095C73.87 54.2943 75.3596 54.406 76.9236 54.2322C77.4946 54.1577 78.016 54.5674 78.078 55.1508C78.1401 55.7342 77.7305 56.2555 77.1471 56.3176H77.1719Z" fill="white"/>
<path d="M93.3088 55.8703C92.5268 55.5103 91.72 55.2124 90.8883 54.9766C88.4926 54.3063 85.9603 54.1821 83.5025 54.7035C82.7453 54.8649 81.9881 55.0759 81.2682 55.349C80.7344 55.5476 80.1262 55.2621 79.9276 54.7159C79.729 54.1822 80.0145 53.5739 80.5482 53.3753C81.3427 53.0774 82.2116 52.8415 83.0681 52.6553C84.7811 52.2954 86.4941 52.1961 88.1823 52.345C88.9395 52.4071 89.6718 52.6057 90.3421 52.916C91.6207 53.5118 92.6758 54.5297 93.284 55.8455C93.284 55.8455 93.284 55.8455 93.2964 55.8703H93.3088Z" fill="white"/>
<path d="M95.1337 60.1904C94.8482 59.4208 94.3145 58.738 93.5945 58.3532C92.887 57.9436 92.1422 57.596 91.3726 57.3105C89.0513 56.454 86.4818 56.2306 83.9372 56.7519C83.2793 56.8885 82.6338 57.0747 82.0131 57.2981C81.0573 57.6457 80.0767 57.9436 79.0961 58.1422C76.3652 58.7132 73.7709 58.6511 71.3751 57.9684C64.7342 56.0816 59.4338 49.2917 57.8697 40.7019C56.5291 33.3161 49.4164 28.3881 42.0307 29.7287L41.6831 29.8032C34.3966 31.33 29.7293 38.2689 31.0575 45.5802C32.1126 51.3895 34.0118 56.814 36.631 61.6675C37.773 63.7777 39.697 65.3666 41.9438 66.2107H41.981C37.6364 60.2897 34.5456 53.1273 33.1057 45.2078C31.9761 39.0013 35.9359 33.1299 42.0927 31.8514C42.1796 31.8265 42.2789 31.8141 42.3907 31.8017C48.6468 30.6597 54.6548 34.8305 55.7968 41.0743C57.4973 50.4585 63.3935 57.8815 70.7917 59.9793C70.891 60.0042 71.0028 60.0414 71.1021 60.0538C71.4 60.1407 71.6979 60.2152 71.9958 60.2648C74.3791 60.7614 76.899 60.7241 79.5057 60.178C80.5856 59.9545 81.6656 59.6442 82.7083 59.2594C83.242 59.0608 83.7882 58.8994 84.3468 58.7877C84.8681 58.676 85.3771 58.6139 85.8984 58.5767C86.1839 58.5518 86.4694 58.5518 86.7549 58.5518C88.4803 58.5518 90.1561 58.9615 91.6705 59.6938C92.8994 60.2897 94.029 61.0965 94.9972 62.0772C95.4813 62.5861 95.9406 63.1447 96.3378 63.7405C95.9654 62.5364 95.5558 61.3324 95.1213 60.1655V60.1904H95.1337ZM98.6963 76.2529C98.5722 74.664 98.3984 73.1124 98.1501 71.5856C98.0632 72.2807 97.8894 72.9758 97.6784 73.6585C97.5419 74.093 97.3805 74.515 97.1819 74.9371C97.1198 75.0736 97.0578 75.2226 96.9585 75.3591C96.884 75.5081 96.8095 75.6446 96.7226 75.7936C95.8661 77.3204 94.6869 78.5989 93.2594 79.5796C93.1352 79.6665 92.9987 79.7533 92.8746 79.8278C92.5518 80.0388 92.2167 80.225 91.8691 80.3988C91.4843 80.5974 91.0871 80.7588 90.6775 80.9202C89.672 81.2801 88.6417 81.6277 87.599 81.9256C87.0777 82.0746 86.7673 82.5959 86.8666 83.1297V83.1545C86.9908 83.7379 87.5866 84.0979 88.1452 83.9365C89.2375 83.6262 90.3175 83.2662 91.385 82.8814C91.5464 82.8194 91.6953 82.7573 91.8443 82.6952C93.2842 82.1118 94.6 81.2926 95.742 80.2747C95.8165 80.2126 95.8909 80.1382 95.9654 80.0761C97.0081 79.1079 97.9018 77.9659 98.5846 76.6997C98.659 76.5632 98.7335 76.4391 98.7956 76.3149L98.659 76.2529H98.6963Z" fill="white"/>
<path d="M95.2823 74.043C95.2823 74.043 95.2575 74.0926 95.2326 74.1299C95.1457 74.3037 95.0713 74.465 94.9595 74.6512C94.2272 76.0291 93.1596 77.1587 91.8811 77.9903C91.5211 78.2262 91.1487 78.4372 90.7639 78.611C90.5777 78.6979 90.404 78.7848 90.2053 78.8593C90.1309 78.8841 90.0564 78.9089 89.9819 78.9461C88.7406 79.4054 87.4869 79.7902 86.2332 80.1254C85.9849 80.1999 85.7366 80.2619 85.4884 80.3116C85.2277 79.182 85.898 78.0524 87.0028 77.7173C87.3503 77.6179 87.6731 77.5186 87.8841 77.4442C88.1075 77.3821 88.331 77.3076 88.542 77.2207C88.7903 77.1462 89.0137 77.0594 89.262 76.9725C90.2674 76.6001 91.1612 76.0291 91.8935 75.2967C92.4645 74.7133 92.9486 74.043 93.3086 73.2858C93.3334 73.2486 93.3583 73.1989 93.3831 73.1617C93.4452 73.0127 93.5196 72.8638 93.5693 72.7148C94.2148 71.0514 94.2396 69.2515 93.6189 67.5634C93.2341 66.5331 92.6383 65.6269 91.8935 64.8946C91.0494 64.0629 90.0067 63.4298 88.8771 63.0823C88.5792 62.9954 88.2689 62.9085 87.971 62.8588C87.0897 62.6975 86.1587 62.7099 85.2277 62.9085C84.8801 62.983 84.5326 63.0823 84.1974 63.2064C82.9437 63.6657 81.6652 64.0256 80.3866 64.2987C78.1895 64.758 76.0545 64.907 73.9691 64.758C73.6836 64.7332 73.3981 64.7084 73.1002 64.696C71.9333 64.5718 70.7789 64.3484 69.6617 64.0381C65.8633 62.9581 62.3877 60.7486 59.5203 57.7322C59.2224 57.4095 58.9244 57.0743 58.6389 56.7516C55.2129 52.8042 52.7552 47.6404 51.7 41.8559C50.9801 37.8713 47.1444 35.2274 43.1723 35.9349L42.9861 35.9721C39.0635 36.7914 36.5437 40.5277 37.2637 44.4751C39.0635 54.4055 43.6936 63.1443 50.4091 69.4377H50.3718C47.3058 68.5068 44.6867 66.4958 42.8744 63.8519C39.1132 58.3529 36.4692 51.8981 35.1907 44.8599C34.2721 39.7829 37.5119 34.9915 42.5516 33.9364L42.7875 33.8867C47.07 33.1047 51.1911 35.3639 52.9786 39.1002C53.3013 39.7581 53.5372 40.4781 53.6985 41.2229L53.7482 41.4711C54.4806 45.4557 55.9081 49.1052 57.8817 52.2208C58.2169 52.767 58.5769 53.3008 58.9617 53.8097C61.9284 57.8315 65.8385 60.7486 70.2327 62.0147C70.8534 62.1885 71.4865 62.3251 72.1195 62.4368C72.4174 62.4988 72.7029 62.5361 73.0009 62.5733C75.2476 62.8712 77.5689 62.7595 79.977 62.263C81.1562 62.0147 82.3355 61.6796 83.4775 61.2451C83.9119 61.0962 84.3588 60.972 84.8181 60.8727C85.5629 60.7114 86.3076 60.6617 87.04 60.699C87.3255 60.699 87.611 60.7362 87.9089 60.7734C89.3364 60.9472 90.7019 61.4561 91.8935 62.2258C93.5569 63.3057 94.8851 64.8946 95.605 66.8558C96.4739 69.2267 96.3746 71.7838 95.3195 74.0678L95.2823 74.043Z" fill="white"/>
<path d="M91.8817 69.2148C91.8321 68.9045 91.7452 68.5817 91.6211 68.2714C91.2859 67.328 90.6777 66.5088 89.8957 65.9129C89.6102 65.7019 89.2998 65.5033 88.9771 65.3543C88.9771 65.3543 88.9398 65.3171 88.915 65.3047C87.6489 64.7213 86.2214 64.6592 84.9056 65.1557C82.3609 66.0867 78.8853 66.968 74.9627 66.8936C74.6897 66.8936 74.4042 66.8936 74.1311 66.8687C72.505 66.7818 70.8044 66.5088 69.079 66.0246C65.6654 65.0564 62.5249 63.2565 59.7692 60.8484C59.4961 60.6126 59.2354 60.3643 58.9499 60.1036C54.295 55.6846 50.9187 49.3787 49.6029 42.1792C49.0939 39.3366 46.3506 37.4374 43.5205 37.9587C40.6779 38.4677 38.7787 41.2109 39.3 44.0535C41.013 53.4875 45.3576 61.6553 51.4897 67.5266C53.3392 69.3017 55.797 70.3072 58.3541 70.2947H58.3913C49.7146 64.833 43.4832 55.2501 41.373 43.6687C41.0627 41.9806 42.1923 40.3296 43.9053 40.0193C45.6059 39.709 47.2568 40.851 47.5671 42.564C49.1063 50.9924 53.3392 58.2789 59.1485 63.0455C59.3968 63.2689 59.6574 63.4676 59.9305 63.6662C62.5249 65.6523 65.4295 67.1418 68.508 68.0231C70.3575 68.5445 72.1574 68.83 73.8952 68.9417C74.1311 68.9417 74.3669 68.9665 74.6028 68.9665C74.9131 68.9665 75.2234 68.9665 75.5213 68.9914C75.8317 68.9914 76.1296 68.9665 76.4399 68.9665C80.0521 68.8424 83.2423 67.9983 85.638 67.117C85.7745 67.0673 85.9359 67.0177 86.0849 66.9929C86.7427 66.8563 87.4255 66.9432 88.0461 67.2163C88.3192 67.3404 88.5675 67.5018 88.7785 67.7004C88.9026 67.7997 89.0267 67.9238 89.1385 68.048C89.3619 68.3335 89.5481 68.6438 89.6722 68.9914C89.7343 69.1652 89.7839 69.3513 89.8088 69.5251C89.8584 69.7858 89.8708 70.0589 89.8336 70.332C89.8088 70.692 89.7219 71.0519 89.5729 71.3871C89.2254 72.1443 88.5923 72.7277 87.7979 73.0132C86.6434 73.4352 84.3222 74.18 84.0863 74.2297C84.0863 74.2297 84.2974 75.2351 84.5208 76.1661V76.2034C84.7815 76.1537 85.0173 76.0916 85.2656 76.0172C85.4394 75.9799 85.6132 75.9303 85.7745 75.8806C86.0104 75.8186 86.2338 75.7441 86.4572 75.682C87.1648 75.471 87.8351 75.2351 88.5302 74.9869C89.8336 74.5152 90.8887 73.5345 91.4845 72.2684C91.5466 72.1319 91.6087 71.9953 91.6459 71.8588C91.7204 71.6602 91.7824 71.4367 91.8321 71.2257C91.8569 71.1388 91.8693 71.0395 91.8942 70.9402C91.9935 70.3692 91.9935 69.7734 91.8942 69.19V69.2148H91.8817Z" fill="white"/>
<path d="M47.9014 53.7603C47.8269 53.7975 47.7525 53.8223 47.678 53.8347C47.2063 53.934 46.7222 53.6982 46.5112 53.2389C45.0837 50.1232 44.041 46.7841 43.4203 43.3209C43.321 42.7499 43.6934 42.2161 44.2644 42.1044C44.8354 42.0051 45.3816 42.3775 45.4809 42.9485C46.0767 46.2379 47.0697 49.4033 48.4228 52.37C48.6586 52.8913 48.4228 53.5244 47.9014 53.7603Z" fill="white"/>
<path d="M78.959 70.9026L79.0335 70.9522L81.3423 72.6528C81.5906 72.6156 81.8388 72.5659 82.0871 72.5038C83.949 72.119 85.6372 71.5977 87.0771 71.0763C87.6109 70.8777 87.8964 70.2819 87.6978 69.7357C87.4992 69.202 86.9033 68.9165 86.3572 69.1151C84.3463 69.8474 81.814 70.555 78.959 70.9026Z" fill="white"/>
<path d="M49.4159 58.4772C52.0723 62.499 55.399 65.8382 59.185 68.3084C60.0539 68.8794 60.9476 69.4131 61.8786 69.8848C63.6288 70.8034 65.466 71.5482 67.3528 72.0819C67.5266 72.1316 67.6879 72.1812 67.8617 72.2061C69.2892 72.5909 70.7043 72.8515 72.0697 73.0005C72.6035 73.0626 73.0876 72.6902 73.1993 72.1688C73.3359 71.5482 72.889 70.9772 72.2683 70.9151C70.8533 70.7537 69.4009 70.4806 67.9238 70.0586C64.8205 69.1773 61.8786 67.7249 59.1974 65.7637C56.1189 63.5542 53.3881 60.6867 51.1661 57.3228C50.8434 56.8387 50.1979 56.7021 49.7138 57.0249C49.2297 57.3352 49.1056 57.9931 49.4159 58.4648V58.4772Z" fill="white"/>
<path d="M24.7884 81.3171C24.2546 81.044 23.845 80.6592 23.5595 80.1626C23.274 79.6661 23.125 79.0951 23.125 78.4496V75.334C23.125 74.6885 23.274 74.1175 23.5595 73.621C23.845 73.1244 24.2546 72.7396 24.7884 72.479C25.3221 72.2059 25.9304 72.0693 26.6379 72.0693C27.3454 72.0693 27.9413 72.1935 28.4626 72.4541C28.984 72.7148 29.3936 73.0748 29.6915 73.5465C29.9894 74.0182 30.126 74.5644 30.126 75.185C30.126 75.2595 30.0763 75.3091 29.9646 75.334L28.3881 75.4333H28.3633C28.2764 75.4333 28.2268 75.3836 28.2268 75.2843C28.2268 74.8126 28.0778 74.4278 27.7923 74.1423C27.4944 73.8568 27.122 73.7079 26.6379 73.7079C26.1538 73.7079 25.769 73.8568 25.4711 74.1423C25.1732 74.4278 25.0366 74.8126 25.0366 75.2843V78.5365C25.0366 79.0082 25.1856 79.3806 25.4711 79.6661C25.769 79.9516 26.1538 80.1006 26.6379 80.1006C27.122 80.1006 27.4944 79.9516 27.7923 79.6661C28.0902 79.3806 28.2268 78.9958 28.2268 78.5365C28.2268 78.4372 28.2764 78.3876 28.3881 78.3876L29.9646 78.4496C29.9646 78.4496 30.0515 78.4496 30.0763 78.4869C30.1011 78.5241 30.126 78.549 30.126 78.5862C30.126 79.2068 29.977 79.753 29.6915 80.2371C29.406 80.7212 28.984 81.0812 28.4626 81.3419C27.9413 81.6026 27.333 81.7391 26.6379 81.7391C25.9428 81.7391 25.3221 81.6026 24.7884 81.3295V81.3171Z" fill="white"/>
<path d="M32.6833 81.3419C32.1495 81.0564 31.7399 80.6468 31.442 80.1378C31.1441 79.6165 30.9951 79.0207 30.9951 78.3503V75.4705C30.9951 74.8002 31.1441 74.2168 31.442 73.7079C31.7399 73.1989 32.1495 72.8017 32.6833 72.5162C33.2171 72.2307 33.8377 72.0942 34.5328 72.0942C35.228 72.0942 35.861 72.2307 36.3948 72.5162C36.9286 72.8017 37.3506 73.1989 37.6361 73.7079C37.934 74.2168 38.083 74.8126 38.083 75.4705V78.3503C38.083 79.0207 37.934 79.6165 37.6361 80.1378C37.3382 80.6592 36.9286 81.0564 36.3948 81.3419C35.861 81.6274 35.2404 81.7639 34.5328 81.7639C33.8253 81.7639 33.2171 81.615 32.6833 81.3295V81.3419ZM32.4226 71.3494C32.4226 71.3494 32.4102 71.2625 32.4474 71.2128L33.4281 69.7978C33.4777 69.7233 33.5398 69.686 33.6143 69.686H35.4018C35.4886 69.686 35.5507 69.7233 35.5879 69.7978L36.6182 71.2128C36.6182 71.2128 36.6555 71.2749 36.6555 71.3121C36.6555 71.3866 36.6058 71.4239 36.5065 71.4239H35.29C35.2156 71.4239 35.1411 71.3866 35.1038 71.3121L34.5701 70.4929C34.5701 70.4929 34.5204 70.4432 34.4956 70.4929L33.9618 71.3121C33.9122 71.3866 33.8501 71.4239 33.7756 71.4239H32.5592C32.5592 71.4239 32.4474 71.399 32.435 71.3618H32.4226V71.3494ZM35.7369 79.6661C36.0472 79.3558 36.1962 78.9338 36.1962 78.4124V75.4457C36.1962 74.9243 36.0472 74.5023 35.7493 74.1796C35.4514 73.8568 35.0418 73.6955 34.5453 73.6955C34.0487 73.6955 33.6515 73.8568 33.3536 74.1796C33.0557 74.5023 32.9067 74.9243 32.9067 75.4457V78.4124C32.9067 78.9338 33.0557 79.3558 33.3536 79.6661C33.6515 79.9765 34.0487 80.1378 34.5453 80.1378C35.0418 80.1378 35.439 79.9765 35.7493 79.6661H35.7369Z" fill="white"/>
<path d="M45.7293 72.243C45.7293 72.243 45.779 72.3175 45.779 72.3547V73.6705C45.779 73.6705 45.779 73.7574 45.7293 73.7822C45.6797 73.8071 45.6549 73.8319 45.6176 73.8319H43.2095C43.2095 73.8319 43.1474 73.8567 43.1474 73.8939V81.4535C43.1474 81.4535 43.1474 81.5404 43.0978 81.5652C43.0481 81.59 43.0233 81.6149 42.986 81.6149H41.4096C41.4096 81.6149 41.3227 81.6025 41.2979 81.5652C41.273 81.528 41.2482 81.4907 41.2482 81.4535V73.8939C41.2482 73.8939 41.2234 73.8319 41.1861 73.8319H38.8401C38.8401 73.8319 38.7532 73.8319 38.7284 73.7822C38.6911 73.7574 38.6787 73.7078 38.6787 73.6705V72.3547C38.6787 72.3547 38.6911 72.2678 38.7284 72.243C38.7656 72.2182 38.8028 72.1934 38.8401 72.1934H45.63C45.63 72.1934 45.7169 72.1934 45.7417 72.243H45.7293Z" fill="white"/>
<path d="M53.1646 73.7699C53.1646 73.7699 53.0901 73.8196 53.0529 73.8196H48.6338C48.6338 73.8196 48.5718 73.8444 48.5718 73.8817V75.9671C48.5718 75.9671 48.5966 76.0291 48.6338 76.0291H51.5261C51.5261 76.0291 51.613 76.0291 51.6378 76.0788C51.6626 76.1284 51.6874 76.1533 51.6874 76.1905V77.4939C51.6874 77.4939 51.6874 77.5808 51.6378 77.6056C51.6006 77.6428 51.5633 77.6552 51.5261 77.6552H48.6338C48.6338 77.6552 48.5718 77.6801 48.5718 77.7173V79.902C48.5718 79.902 48.5966 79.9641 48.6338 79.9641H53.0529C53.0529 79.9641 53.1398 79.9641 53.1646 80.0137C53.2018 80.051 53.2143 80.0882 53.2143 80.1254V81.4288C53.2143 81.4288 53.2143 81.5157 53.1646 81.5405C53.1398 81.5778 53.0901 81.5902 53.0529 81.5902H46.8215C46.8215 81.5902 46.7346 81.5778 46.7098 81.5405C46.685 81.5033 46.6602 81.466 46.6602 81.4288V72.3176C46.6602 72.3176 46.6602 72.2307 46.7098 72.2059C46.747 72.1811 46.7843 72.1562 46.8215 72.1562H53.0529C53.0529 72.1562 53.1398 72.1563 53.1646 72.2059C53.1894 72.2556 53.2143 72.2804 53.2143 72.3176V73.621C53.2143 73.621 53.2143 73.7079 53.1646 73.7327V73.7699Z" fill="white"/>
<path d="M23.3729 93.3452C23.3729 93.3452 23.3232 93.2707 23.3232 93.2335V84.1223C23.3232 84.1223 23.3357 84.0354 23.3729 84.0106C23.4101 83.9858 23.4474 83.9609 23.4846 83.9609H26.8485C27.5189 83.9609 28.1147 84.0851 28.6236 84.3209C29.1326 84.5568 29.5298 84.8919 29.8029 85.3264C30.0759 85.7608 30.2249 86.2574 30.2249 86.8284V90.5523C30.2249 91.1233 30.0884 91.6198 29.8029 92.0542C29.5174 92.4887 29.1326 92.8239 28.6236 93.0597C28.1147 93.2956 27.5189 93.4197 26.8485 93.4197H23.4846C23.4846 93.4197 23.3977 93.4073 23.3729 93.37V93.3452ZM25.2845 91.7563H26.9106C27.3202 91.7563 27.6554 91.6198 27.9161 91.3343C28.1767 91.0612 28.3009 90.6888 28.3133 90.2171V87.1139C28.3133 86.6422 28.1892 86.2698 27.9285 85.9967C27.6678 85.7236 27.3327 85.5746 26.8982 85.5746H25.2845C25.2845 85.5746 25.2224 85.5995 25.2224 85.6367V91.6819C25.2224 91.6819 25.2473 91.7439 25.2845 91.7439V91.7563Z" fill="white"/>
<path d="M33.1674 84.0109C33.1674 84.0109 33.1798 84.0853 33.1674 84.1474L32.0626 86.8907C32.0378 86.9652 31.9758 87.0148 31.8765 87.0148H30.6848C30.5731 87.0148 30.5234 86.9528 30.5483 86.8411L31.2806 84.1102C31.3055 84.0233 31.3675 83.9736 31.4668 83.9736H33.0433C33.0433 83.9736 33.1426 83.9985 33.1674 84.0233V84.0109Z" fill="white"/>
<path d="M33.7752 93.3452C33.7752 93.3452 33.7256 93.2707 33.7256 93.2335V84.1223C33.7256 84.1223 33.738 84.0354 33.7752 84.0106C33.8125 83.9858 33.8497 83.9609 33.887 83.9609H35.4634C35.4634 83.9609 35.5503 83.9734 35.5751 84.0106C35.6124 84.0478 35.6248 84.0851 35.6248 84.1223V93.2335C35.6248 93.2335 35.6124 93.3204 35.5751 93.3452C35.5379 93.37 35.5007 93.3949 35.4634 93.3949H33.887C33.887 93.3949 33.8001 93.3824 33.7752 93.3452Z" fill="white"/>
<path d="M39.2619 93.2461L36.4814 84.1349V84.0853C36.469 83.9984 36.5186 83.9487 36.6179 83.9487H38.3185C38.4178 83.9487 38.4799 83.9984 38.5047 84.0853L40.2922 90.6642C40.2922 90.6642 40.317 90.7014 40.3294 90.7014C40.3418 90.7014 40.3667 90.689 40.3667 90.6642L42.1293 84.0853C42.1541 83.9984 42.2162 83.9487 42.3155 83.9487H43.9789C43.9789 83.9487 44.0782 83.9736 44.103 83.9984C44.1278 84.0232 44.1402 84.0729 44.103 84.1349L41.2852 93.2461C41.2604 93.333 41.1983 93.3827 41.1114 93.3827H39.4108C39.324 93.3827 39.2619 93.333 39.2371 93.2461H39.2495H39.2619Z" fill="white"/>
<path d="M46.0397 93.1095C45.506 92.824 45.0963 92.4144 44.7984 91.9055C44.5005 91.3841 44.3516 90.7883 44.3516 90.118V87.2382C44.3516 86.5679 44.5005 85.9844 44.7984 85.4755C45.0963 84.9666 45.506 84.5694 46.0397 84.2839C46.5735 83.9984 47.1942 83.8618 47.8893 83.8618C48.5844 83.8618 49.2175 83.9984 49.7512 84.2839C50.285 84.5694 50.7071 84.9666 50.9926 85.4755C51.2905 85.9844 51.4394 86.5803 51.4394 87.2382V90.118C51.4394 90.7883 51.2905 91.3841 50.9926 91.9055C50.6946 92.4268 50.285 92.824 49.7512 93.1095C49.2175 93.395 48.5968 93.5316 47.8893 93.5316C47.1817 93.5316 46.5735 93.3826 46.0397 93.0971V93.1095ZM49.0934 91.4338C49.4037 91.1235 49.5526 90.7014 49.5526 90.1801V87.2133C49.5526 86.692 49.4037 86.27 49.1058 85.9472C48.8079 85.6245 48.3982 85.4631 47.9017 85.4631C47.4052 85.4631 47.008 85.6245 46.71 85.9472C46.4121 86.27 46.2632 86.692 46.2632 87.2133V90.1801C46.2632 90.7014 46.4121 91.1235 46.71 91.4338C47.008 91.7441 47.4052 91.9055 47.9017 91.9055C48.3982 91.9055 48.7954 91.7441 49.1058 91.4338H49.0934Z" fill="white"/>
<path d="M52.618 93.3452C52.618 93.3452 52.5684 93.2707 52.5684 93.2335V84.1223C52.5684 84.1223 52.5684 84.0354 52.618 84.0106C52.6553 83.9858 52.6925 83.9609 52.7297 83.9609H54.3062C54.3062 83.9609 54.3931 83.9734 54.4179 84.0106C54.4551 84.0478 54.4676 84.0851 54.4676 84.1223V93.2335C54.4676 93.2335 54.4676 93.3204 54.4179 93.3452C54.3683 93.37 54.3434 93.3949 54.3062 93.3949H52.7297C52.7297 93.3949 52.6428 93.3824 52.618 93.3452Z" fill="white"/>
<path d="M60.7742 93.2709L59.0861 89.5346C59.0861 89.5346 59.0364 89.485 58.9992 89.485H57.7454C57.7454 89.485 57.6834 89.5098 57.6834 89.547V93.2213C57.6834 93.2213 57.6834 93.3082 57.6337 93.333C57.5841 93.3578 57.5592 93.3827 57.522 93.3827H55.9456C55.9456 93.3827 55.8587 93.3702 55.8338 93.333C55.809 93.2958 55.7842 93.2585 55.7842 93.2213V84.1101C55.7842 84.1101 55.7842 84.0232 55.8338 83.9984C55.8711 83.9736 55.9083 83.9487 55.9456 83.9487H59.806C60.377 83.9487 60.886 84.0604 61.3204 84.2963C61.7549 84.5321 62.09 84.8673 62.3259 85.2893C62.5617 85.7114 62.6858 86.2203 62.6858 86.7789C62.6858 87.3871 62.5369 87.9085 62.2266 88.3554C61.9162 88.7898 61.4942 89.1002 60.948 89.2739C60.8984 89.2863 60.8859 89.3236 60.9108 89.3732L62.7479 93.184C62.7479 93.184 62.7727 93.2461 62.7727 93.2585C62.7727 93.333 62.7231 93.3702 62.6238 93.3702H60.9604C60.8735 93.3702 60.8115 93.333 60.7742 93.2461V93.2709ZM57.6834 85.6493V87.9581C57.6834 87.9581 57.7082 88.0202 57.7454 88.0202H59.5081C59.8805 88.0202 60.1908 87.9085 60.4267 87.6851C60.6625 87.4616 60.7866 87.1637 60.7866 86.8037C60.7866 86.4438 60.6625 86.1458 60.4267 85.9224C60.1908 85.6866 59.8805 85.5748 59.5081 85.5748H57.7454C57.7454 85.5748 57.6834 85.5997 57.6834 85.6369V85.6493Z" fill="white"/>
<path d="M70.2203 85.5375C70.2203 85.5375 70.1458 85.5872 70.1085 85.5872H65.6895C65.6895 85.5872 65.6274 85.612 65.6274 85.6493V87.7346C65.6274 87.7346 65.6523 87.7967 65.6895 87.7967H68.5817C68.5817 87.7967 68.6686 87.8091 68.6935 87.8464C68.7183 87.8836 68.7431 87.9208 68.7431 87.9581V89.2614C68.7431 89.2614 68.7431 89.3483 68.6935 89.3732C68.6562 89.4104 68.619 89.4228 68.5817 89.4228H65.6895C65.6895 89.4228 65.6274 89.4476 65.6274 89.4849V91.6696C65.6274 91.6696 65.6523 91.7316 65.6895 91.7316H70.1085C70.1085 91.7316 70.1954 91.7441 70.2203 91.7813C70.2575 91.8185 70.2699 91.8558 70.2699 91.893V93.1964C70.2699 93.1964 70.2699 93.2833 70.2203 93.3081C70.1954 93.3453 70.1458 93.3578 70.1085 93.3578H63.8772C63.8772 93.3578 63.7903 93.3453 63.7655 93.3081C63.7406 93.2709 63.7158 93.2336 63.7158 93.1964V84.0852C63.7158 84.0852 63.7158 83.9983 63.7655 83.9735C63.8027 83.9487 63.8399 83.9238 63.8772 83.9238H70.1085C70.1085 83.9238 70.1954 83.9362 70.2203 83.9735C70.2451 84.0107 70.2699 84.048 70.2699 84.0852V85.3886C70.2699 85.3886 70.2699 85.4755 70.2203 85.5003V85.5375Z" fill="white"/>
<path d="M23.3729 105.101C23.3729 105.101 23.3232 105.026 23.3232 104.989V95.8777C23.3232 95.8777 23.3357 95.7908 23.3729 95.766C23.4101 95.7411 23.4474 95.7163 23.4846 95.7163H25.0611C25.0611 95.7163 25.148 95.7287 25.1728 95.766C25.21 95.8032 25.2224 95.8404 25.2224 95.8777V104.989C25.2224 104.989 25.21 105.076 25.1728 105.101C25.1355 105.125 25.0983 105.15 25.0611 105.15H23.4846C23.4846 105.15 23.3977 105.138 23.3729 105.101Z" fill="white"/>
<path d="M26.576 105.101C26.576 105.101 26.5264 105.026 26.5264 104.989V95.8777C26.5264 95.8777 26.5388 95.7908 26.576 95.766C26.6133 95.7411 26.6505 95.7163 26.6877 95.7163H30.0517C30.722 95.7163 31.3178 95.8404 31.8267 96.0763C32.3357 96.3121 32.7329 96.6473 33.006 97.0818C33.2791 97.5162 33.428 98.0127 33.428 98.5837V102.308C33.428 102.879 33.2915 103.375 33.006 103.81C32.7205 104.244 32.3357 104.579 31.8267 104.815C31.3178 105.051 30.722 105.175 30.0517 105.175H26.6877C26.6877 105.175 26.6008 105.163 26.576 105.125V105.101ZM28.5 103.512H30.1262C30.5358 103.512 30.8709 103.375 31.1316 103.09C31.3923 102.817 31.5164 102.444 31.5288 101.972V98.8692C31.5288 98.3975 31.4047 98.0251 31.144 97.7521C30.8833 97.479 30.5482 97.33 30.1137 97.33H28.5C28.5 97.33 28.438 97.3548 28.438 97.3921V103.437C28.438 103.437 28.4628 103.499 28.5 103.499V103.512Z" fill="white"/>
<path d="M41.025 97.2929C41.025 97.2929 40.9505 97.3426 40.9132 97.3426H36.4942C36.4942 97.3426 36.4321 97.3674 36.4321 97.4046V99.49C36.4321 99.49 36.4569 99.5521 36.4942 99.5521H39.3864C39.3864 99.5521 39.4733 99.5645 39.4981 99.6017C39.523 99.639 39.5478 99.6762 39.5478 99.7134V101.017C39.5478 101.017 39.5354 101.104 39.4981 101.129C39.4609 101.166 39.4237 101.178 39.3864 101.178H36.4942C36.4942 101.178 36.4321 101.203 36.4321 101.24V103.425C36.4321 103.425 36.4569 103.487 36.4942 103.487H40.9132C40.9132 103.487 41.0001 103.499 41.025 103.537C41.0622 103.574 41.0746 103.611 41.0746 103.648V104.952C41.0746 104.952 41.0746 105.039 41.025 105.063C41.0001 105.101 40.9505 105.113 40.9132 105.113H34.6819C34.6819 105.113 34.595 105.101 34.5702 105.063C34.5453 105.026 34.5205 104.989 34.5205 104.952V95.8406C34.5205 95.8406 34.5329 95.7537 34.5702 95.7289C34.6074 95.704 34.6446 95.6792 34.6819 95.6792H40.9132C40.9132 95.6792 41.0001 95.6916 41.025 95.7289C41.0498 95.7661 41.0746 95.8033 41.0746 95.8406V97.1439C41.0746 97.1439 41.0746 97.2308 41.025 97.2557V97.2929Z" fill="white"/>
<path d="M47.5291 95.7535C47.5291 95.7535 47.6036 95.7038 47.6408 95.7038H49.2173C49.2173 95.7038 49.3042 95.7162 49.329 95.7535C49.3539 95.7907 49.3787 95.8279 49.3787 95.8652V104.976C49.3787 104.976 49.3787 105.063 49.329 105.088C49.2918 105.125 49.2545 105.138 49.2173 105.138H47.6905C47.6036 105.138 47.5415 105.101 47.5043 105.026L44.0162 99.254C44.0162 99.254 43.979 99.2167 43.9666 99.2167C43.9542 99.2167 43.9418 99.2415 43.9418 99.2788L43.9666 104.964C43.9666 104.964 43.9666 105.051 43.9169 105.076C43.8673 105.101 43.8425 105.125 43.8052 105.125H42.2288C42.2288 105.125 42.1419 105.113 42.117 105.076C42.0922 105.038 42.0674 105.001 42.0674 104.964V95.8528C42.0674 95.8528 42.0674 95.7659 42.117 95.7411C42.1543 95.7162 42.1915 95.6914 42.2288 95.6914H43.7556C43.8425 95.6914 43.9045 95.7287 43.9418 95.8031L47.4174 101.55C47.4174 101.55 47.4547 101.588 47.4671 101.588C47.4919 101.588 47.4919 101.563 47.4919 101.526V95.8652C47.4919 95.8652 47.4919 95.7783 47.5291 95.7535Z" fill="white"/>
<path d="M57.3104 95.7533C57.3104 95.7533 57.36 95.8277 57.36 95.865V97.1808C57.36 97.1808 57.36 97.2677 57.3104 97.2925C57.2607 97.3173 57.2359 97.3421 57.1987 97.3421H54.7905C54.7905 97.3421 54.7285 97.367 54.7285 97.4042V104.964C54.7285 104.964 54.7285 105.051 54.6788 105.075C54.6292 105.1 54.6043 105.125 54.5671 105.125H52.9906C52.9906 105.125 52.9037 105.113 52.8789 105.075C52.8541 105.038 52.8293 105.001 52.8293 104.964V97.4042C52.8293 97.4042 52.8044 97.3421 52.7672 97.3421H50.4211C50.4211 97.3421 50.3342 97.3297 50.3094 97.2925C50.2722 97.2677 50.2598 97.218 50.2598 97.1808V95.865C50.2598 95.865 50.2598 95.7781 50.3094 95.7533C50.3591 95.7284 50.3839 95.7036 50.4211 95.7036H57.2111C57.2111 95.7036 57.298 95.716 57.3228 95.7533H57.3104Z" fill="white"/>
<path d="M58.2791 105.101C58.2791 105.101 58.2295 105.026 58.2295 104.989V95.8777C58.2295 95.8777 58.2295 95.7908 58.2791 95.766C58.3164 95.7411 58.3536 95.7163 58.3909 95.7163H59.9673C59.9673 95.7163 60.0542 95.7287 60.079 95.766C60.1163 95.8032 60.1287 95.8404 60.1287 95.8777V104.989C60.1287 104.989 60.1287 105.076 60.079 105.101C60.0294 105.125 60.0046 105.15 59.9673 105.15H58.3909C58.3909 105.15 58.304 105.138 58.2791 105.101Z" fill="white"/>
<path d="M68.0731 95.7533C68.0731 95.7533 68.1227 95.8277 68.1227 95.865V97.1808C68.1227 97.1808 68.1227 97.2677 68.0731 97.2925C68.0234 97.3173 67.9986 97.3421 67.9614 97.3421H65.5532C65.5532 97.3421 65.4912 97.367 65.4912 97.4042V104.964C65.4912 104.964 65.4912 105.051 65.4415 105.075C65.3919 105.1 65.367 105.125 65.3298 105.125H63.7533C63.7533 105.125 63.6664 105.113 63.6416 105.075C63.6168 105.038 63.592 105.001 63.592 104.964V97.4042C63.592 97.4042 63.5671 97.3421 63.5299 97.3421H61.1838C61.1838 97.3421 61.0969 97.3297 61.0721 97.2925C61.0349 97.2677 61.0225 97.218 61.0225 97.1808V95.865C61.0225 95.865 61.0225 95.7781 61.0721 95.7533C61.1218 95.7284 61.1466 95.7036 61.1838 95.7036H67.9738C67.9738 95.7036 68.0607 95.716 68.0855 95.7533H68.0731Z" fill="white"/>
<path d="M75.4957 97.2926C75.4957 97.2926 75.4212 97.3423 75.3839 97.3423H70.9649C70.9649 97.3423 70.9028 97.3671 70.9028 97.4043V99.4897C70.9028 99.4897 70.9276 99.5518 70.9649 99.5518H73.8571C73.8571 99.5518 73.944 99.5642 73.9688 99.6014C73.9937 99.6387 74.0185 99.6759 74.0185 99.7131V101.017C74.0185 101.017 74.0185 101.103 73.9688 101.128C73.9316 101.165 73.8944 101.178 73.8571 101.178H70.9649C70.9649 101.178 70.9028 101.203 70.9028 101.24V103.425C70.9028 103.425 70.9276 103.487 70.9649 103.487H75.3839C75.3839 103.487 75.4708 103.499 75.4957 103.536C75.5329 103.574 75.5453 103.611 75.5453 103.648V104.951C75.5453 104.951 75.5453 105.038 75.4957 105.063C75.4708 105.1 75.4212 105.113 75.3839 105.113H69.1526C69.1526 105.113 69.0657 105.1 69.0409 105.063C69.016 105.026 68.9912 104.989 68.9912 104.951V95.8403C68.9912 95.8403 68.9912 95.7534 69.0409 95.7286C69.0781 95.7037 69.1153 95.6789 69.1526 95.6789H75.3839C75.3839 95.6789 75.4708 95.6913 75.4957 95.7286C75.5205 95.7658 75.5453 95.803 75.5453 95.8403V97.1436C75.5453 97.1436 75.5453 97.2305 75.4957 97.2554V97.2926ZM71.3621 94.8224C71.3621 94.8224 71.3621 94.7479 71.3621 94.6859L72.0821 93.3204C72.1193 93.2335 72.1814 93.1963 72.2807 93.1963H73.6461C73.6461 93.1963 73.7578 93.2211 73.7702 93.2584C73.7951 93.2956 73.7702 93.3453 73.7454 93.3949L72.7896 94.7603C72.74 94.8348 72.6779 94.8721 72.6034 94.8721H71.4738C71.4738 94.8721 71.3745 94.8596 71.3497 94.8224H71.3621Z" fill="white"/>
<path d="M349.8 130.237C349.8 134.532 346.287 138.045 341.992 138.045H160.923C156.628 138.045 153.115 134.532 153.115 130.237V80.2871C153.115 75.9922 156.628 72.4917 160.911 72.4917H341.98C346.275 72.4917 349.788 76.0046 349.788 80.2995V130.25L349.8 130.237Z" fill="black"/>
<path d="M208.676 93.805H203.698L202.78 96.3497H201.203L205.337 84.9917H207.062L211.171 96.3497H209.594L208.676 93.805ZM208.254 92.5885L206.193 86.8164L204.133 92.5885H208.266H208.254Z" fill="white"/>
<path d="M216.322 94.9598L219.103 87.3506H220.692L217.166 96.3376H215.429L211.903 87.3506H213.505L216.31 94.9598H216.322Z" fill="white"/>
<path d="M222.169 89.3986C222.542 88.7034 223.051 88.1697 223.708 87.7849C224.366 87.4001 225.086 87.2139 225.881 87.2139C226.675 87.2139 227.345 87.3877 227.929 87.7228C228.512 88.058 228.934 88.4924 229.22 89.0014V87.3628H230.722V96.3499H229.22V94.6741C228.922 95.1955 228.487 95.6299 227.904 95.9775C227.321 96.3251 226.638 96.4988 225.868 96.4988C225.099 96.4988 224.354 96.3002 223.708 95.903C223.063 95.5058 222.554 94.9596 222.182 94.2521C221.809 93.5445 221.623 92.7377 221.623 91.8315C221.623 90.9254 221.809 90.1061 222.182 89.411L222.169 89.3986ZM228.81 90.0565C228.537 89.5599 228.165 89.1751 227.705 88.902C227.234 88.629 226.725 88.5048 226.166 88.5048C225.608 88.5048 225.099 88.6414 224.639 88.902C224.18 89.1627 223.82 89.5475 223.547 90.044C223.274 90.553 223.137 91.1364 223.137 91.8191C223.137 92.5018 223.274 93.1101 223.547 93.619C223.82 94.1279 224.193 94.5127 224.639 94.7858C225.099 95.0589 225.608 95.1955 226.166 95.1955C226.725 95.1955 227.234 95.0589 227.705 94.7858C228.165 94.5127 228.537 94.1279 228.81 93.619C229.083 93.1101 229.22 92.5142 229.22 91.8439C229.22 91.1736 229.083 90.5778 228.81 90.0689V90.0565Z" fill="white"/>
<path d="M233.304 85.6001C233.105 85.4015 233.006 85.1657 233.006 84.8802C233.006 84.5947 233.105 84.3588 233.304 84.1602C233.502 83.9616 233.738 83.8623 234.024 83.8623C234.309 83.8623 234.533 83.9616 234.719 84.1602C234.905 84.3588 235.004 84.5947 235.004 84.8802C235.004 85.1657 234.905 85.4015 234.719 85.6001C234.52 85.7987 234.297 85.898 234.024 85.898C233.751 85.898 233.502 85.7987 233.304 85.6001ZM234.744 87.3504V96.3374H233.254V87.3504H234.744Z" fill="white"/>
<path d="M238.778 84.21V96.3375H237.288V84.21H238.778Z" fill="white"/>
<path d="M241.31 89.3986C241.682 88.7034 242.191 88.1697 242.849 87.7849C243.507 87.4001 244.227 87.2139 245.021 87.2139C245.816 87.2139 246.486 87.3877 247.069 87.7228C247.653 88.058 248.075 88.4924 248.36 89.0014V87.3628H249.862V96.3499H248.36V94.6741C248.063 95.1955 247.628 95.6299 247.045 95.9775C246.461 96.3251 245.779 96.4988 245.009 96.4988C244.239 96.4988 243.495 96.3002 242.849 95.903C242.204 95.5058 241.695 94.9596 241.322 94.2521C240.95 93.5445 240.764 92.7377 240.764 91.8315C240.764 90.9254 240.95 90.1061 241.322 89.411L241.31 89.3986ZM247.951 90.0565C247.678 89.5599 247.305 89.1751 246.846 88.902C246.374 88.629 245.865 88.5048 245.307 88.5048C244.748 88.5048 244.239 88.6414 243.78 88.902C243.321 89.1627 242.961 89.5475 242.688 90.044C242.415 90.553 242.278 91.1364 242.278 91.8191C242.278 92.5018 242.415 93.1101 242.688 93.619C242.961 94.1279 243.333 94.5127 243.78 94.7858C244.239 95.0589 244.748 95.1955 245.307 95.1955C245.865 95.1955 246.374 95.0589 246.846 94.7858C247.305 94.5127 247.678 94.1279 247.951 93.619C248.224 93.1101 248.36 92.5142 248.36 91.8439C248.36 91.1736 248.224 90.5778 247.951 90.0689V90.0565Z" fill="white"/>
<path d="M255.225 87.7229C255.821 87.3877 256.491 87.2139 257.248 87.2139C258.055 87.2139 258.788 87.4001 259.421 87.7849C260.066 88.1697 260.575 88.7035 260.947 89.3986C261.32 90.0938 261.506 90.9006 261.506 91.8192C261.506 92.7377 261.32 93.5322 260.947 94.2397C260.575 94.9473 260.066 95.5058 259.421 95.8907C258.763 96.2879 258.043 96.4865 257.248 96.4865C256.454 96.4865 255.796 96.3127 255.213 95.9775C254.629 95.6424 254.182 95.2079 253.897 94.6866V96.3375H252.407V84.21H253.897V89.0262C254.207 88.4925 254.654 88.058 255.237 87.7104H255.225V87.7229ZM259.57 90.0441C259.296 89.5476 258.924 89.1628 258.465 88.9021C258.006 88.6414 257.484 88.5049 256.938 88.5049C256.392 88.5049 255.883 88.6414 255.424 88.9021C254.952 89.1752 254.592 89.56 254.306 90.0689C254.033 90.5779 253.884 91.1613 253.884 91.8316C253.884 92.5019 254.021 93.0977 254.306 93.6066C254.592 94.1156 254.952 94.5004 255.424 94.7735C255.883 95.0466 256.392 95.1831 256.938 95.1831C257.484 95.1831 258.006 95.0466 258.465 94.7735C258.937 94.5004 259.296 94.1156 259.57 93.6066C259.843 93.0977 259.979 92.5019 259.979 91.8068C259.979 91.1116 259.843 90.5406 259.57 90.0317V90.0441Z" fill="white"/>
<path d="M264.956 84.21V96.3375H263.467V84.21H264.956Z" fill="white"/>
<path d="M275.644 92.4023H268.469C268.532 93.2836 268.829 93.9788 269.376 94.4753C269.922 94.9718 270.592 95.2201 271.387 95.2201C272.032 95.2201 272.566 95.0711 273 94.7732C273.435 94.4753 273.733 94.0781 273.906 93.5691H275.52C275.284 94.4381 274.8 95.1332 274.08 95.6794C273.36 96.2255 272.466 96.4862 271.387 96.4862C270.53 96.4862 269.773 96.2876 269.103 95.9152C268.432 95.5304 267.898 94.9842 267.526 94.2891C267.141 93.5816 266.955 92.7623 266.955 91.8437C266.955 90.9252 267.141 90.0935 267.514 89.3984C267.886 88.7032 268.407 88.157 269.078 87.7847C269.748 87.4123 270.518 87.2261 271.399 87.2261C272.28 87.2261 273 87.4123 273.658 87.7847C274.316 88.157 274.813 88.666 275.173 89.3239C275.532 89.9694 275.706 90.7141 275.706 91.5334C275.706 91.8189 275.706 92.1168 275.657 92.4396V92.4023H275.644ZM273.782 89.7211C273.534 89.3115 273.186 89.0011 272.764 88.7901C272.33 88.5791 271.858 88.4674 271.337 88.4674C270.58 88.4674 269.934 88.7032 269.413 89.1873C268.879 89.6714 268.581 90.3293 268.507 91.1858H274.179C274.179 90.6148 274.055 90.1307 273.807 89.7211H273.782Z" fill="white"/>
<path d="M283.663 95.9152C282.981 95.5304 282.447 94.9842 282.062 94.2891C281.677 93.5816 281.479 92.7623 281.479 91.8437C281.479 90.9252 281.677 90.1183 282.074 89.4108C282.472 88.7032 283.018 88.1695 283.7 87.7847C284.383 87.3999 285.165 87.2261 286.009 87.2261C286.853 87.2261 287.635 87.4123 288.318 87.7847C289.001 88.157 289.547 88.7032 289.944 89.3984C290.341 90.0935 290.54 90.9128 290.54 91.8437C290.54 92.7747 290.341 93.594 289.932 94.2891C289.522 94.9967 288.964 95.5304 288.268 95.9152C287.573 96.3 286.791 96.4862 285.935 96.4862C285.078 96.4862 284.334 96.2876 283.651 95.9152H283.663ZM287.462 94.798C287.933 94.5498 288.318 94.165 288.604 93.6685C288.889 93.1719 289.038 92.5513 289.038 91.8313C289.038 91.1114 288.902 90.4907 288.616 89.9942C288.331 89.4853 287.958 89.1129 287.499 88.8646C287.04 88.6163 286.543 88.4922 286.009 88.4922C285.476 88.4922 284.967 88.6163 284.507 88.8646C284.048 89.1129 283.688 89.4853 283.415 89.9942C283.142 90.4907 283.005 91.1114 283.005 91.8313C283.005 92.5513 283.142 93.1843 283.403 93.6809C283.663 94.1774 284.023 94.5622 284.482 94.798C284.929 95.0463 285.426 95.1704 285.96 95.1704C286.493 95.1704 287.002 95.0463 287.462 94.798Z" fill="white"/>
<path d="M299.564 88.182C300.234 88.8399 300.582 89.7957 300.582 91.037V96.3374H299.105V91.2604C299.105 90.3667 298.881 89.684 298.434 89.1999C297.987 88.7282 297.367 88.4799 296.597 88.4799C295.828 88.4799 295.182 88.7282 294.723 89.2247C294.263 89.7212 294.028 90.4288 294.028 91.3722V96.3374H292.538V87.3503H294.028V88.6289C294.326 88.1696 294.723 87.822 295.232 87.5614C295.741 87.3131 296.299 87.189 296.907 87.189C298 87.189 298.881 87.5241 299.564 88.182Z" fill="white"/>
<path d="M309.209 88.5919V93.8798C309.209 94.3143 309.296 94.6246 309.482 94.8108C309.668 94.997 309.991 95.0839 310.45 95.0839H311.543V96.35H310.202C309.37 96.35 308.75 96.1638 308.328 95.779C307.905 95.3942 307.707 94.7736 307.707 93.8922V88.6043H306.54V87.3754H307.707V85.1162H309.196V87.3754H311.543V88.6043H309.196L309.209 88.5919Z" fill="white"/>
<path d="M319.648 87.6236C320.194 87.9091 320.629 88.3435 320.939 88.9269C321.249 89.5103 321.411 90.2055 321.411 91.0371V96.3375H319.934V91.2606C319.934 90.3668 319.71 89.6841 319.263 89.2C318.817 88.7159 318.208 88.4801 317.426 88.4801C316.644 88.4801 316.011 88.7283 315.552 89.2248C315.08 89.7214 314.857 90.4289 314.857 91.3723V96.3375H313.367V84.21H314.857V88.6414C315.155 88.1821 315.564 87.8346 316.073 87.5739C316.595 87.3256 317.178 87.2015 317.823 87.2015C318.469 87.2015 319.114 87.3505 319.661 87.636H319.648V87.6236Z" fill="white"/>
<path d="M331.987 92.4023H324.812C324.874 93.2836 325.172 93.9788 325.718 94.4753C326.265 94.9718 326.935 95.2201 327.729 95.2201C328.375 95.2201 328.909 95.0711 329.343 94.7732C329.777 94.4753 330.075 94.0781 330.249 93.5691H331.863C331.627 94.4381 331.143 95.1332 330.423 95.6794C329.703 96.2255 328.809 96.4862 327.729 96.4862C326.873 96.4862 326.116 96.2876 325.445 95.9152C324.775 95.5304 324.241 94.9842 323.869 94.2891C323.484 93.5816 323.298 92.7623 323.298 91.8437C323.298 90.9252 323.484 90.0935 323.856 89.3984C324.229 88.7032 324.75 88.157 325.42 87.7847C326.091 87.4123 326.86 87.2261 327.742 87.2261C328.623 87.2261 329.343 87.4123 330.001 87.7847C330.659 88.157 331.155 88.666 331.515 89.3239C331.875 89.9694 332.049 90.7141 332.049 91.5334C332.049 91.8189 332.037 92.1168 331.999 92.4396V92.4023H331.987ZM330.125 89.7211C329.877 89.3115 329.529 89.0011 329.107 88.7901C328.673 88.5791 328.201 88.4674 327.68 88.4674C326.922 88.4674 326.277 88.7032 325.756 89.1873C325.222 89.6714 324.924 90.3293 324.849 91.1858H330.522C330.522 90.6148 330.398 90.1307 330.15 89.7211H330.125Z" fill="white"/>
<path d="M211.022 117.799H204.22L202.966 121.263H200.818L206.454 105.759H208.8L214.411 121.263H212.263L211.009 117.799H211.022ZM210.438 116.136L207.621 108.266L204.803 116.136H210.438Z" fill="white"/>
<path d="M220.729 109.508C221.523 109.036 222.454 108.8 223.509 108.8C224.565 108.8 225.582 109.061 226.476 109.582C227.357 110.104 228.065 110.836 228.562 111.792C229.07 112.735 229.319 113.84 229.319 115.094C229.319 116.347 229.058 117.44 228.562 118.408C228.053 119.376 227.357 120.133 226.476 120.667C225.582 121.201 224.602 121.474 223.509 121.474C222.417 121.474 221.548 121.238 220.741 120.766C219.947 120.295 219.339 119.711 218.917 119.016V127.097H216.881V109.011H218.917V111.27C219.314 110.575 219.922 109.98 220.716 109.52L220.729 109.508ZM226.687 112.673C226.315 111.99 225.818 111.469 225.173 111.109C224.527 110.749 223.845 110.575 223.087 110.575C222.33 110.575 221.647 110.762 221.014 111.122C220.381 111.482 219.872 112.015 219.488 112.71C219.103 113.406 218.917 114.212 218.917 115.119C218.917 116.025 219.103 116.856 219.488 117.552C219.872 118.247 220.369 118.768 221.014 119.14C221.647 119.5 222.343 119.687 223.087 119.687C223.832 119.687 224.54 119.5 225.173 119.14C225.806 118.768 226.315 118.247 226.687 117.552C227.06 116.856 227.246 116.037 227.246 115.106C227.246 114.175 227.06 113.381 226.687 112.686V112.673Z" fill="white"/>
<path d="M235.848 109.508C236.643 109.036 237.574 108.8 238.641 108.8C239.709 108.8 240.714 109.061 241.608 109.582C242.489 110.104 243.197 110.836 243.706 111.792C244.215 112.735 244.463 113.84 244.463 115.094C244.463 116.347 244.202 117.44 243.706 118.408C243.197 119.376 242.502 120.133 241.608 120.667C240.714 121.201 239.734 121.474 238.641 121.474C237.549 121.474 236.68 121.238 235.873 120.766C235.079 120.295 234.47 119.711 234.048 119.016V127.097H232.013V109.011H234.048V111.27C234.458 110.575 235.054 109.98 235.848 109.52V109.508ZM241.819 112.673C241.447 111.99 240.938 111.469 240.305 111.109C239.672 110.749 238.976 110.575 238.207 110.575C237.437 110.575 236.767 110.762 236.134 111.122C235.501 111.482 234.992 112.015 234.607 112.71C234.222 113.406 234.036 114.212 234.036 115.119C234.036 116.025 234.222 116.856 234.607 117.552C234.992 118.247 235.501 118.768 236.134 119.14C236.767 119.5 237.462 119.687 238.207 119.687C238.952 119.687 239.672 119.5 240.305 119.14C240.938 118.768 241.447 118.247 241.819 117.552C242.191 116.856 242.378 116.037 242.378 115.106C242.378 114.175 242.191 113.381 241.819 112.686V112.673Z" fill="white"/>
<path d="M255.3 120.878C254.493 120.518 253.847 120.009 253.388 119.351C252.929 118.706 252.693 117.948 252.668 117.104H254.84C254.915 117.837 255.213 118.445 255.746 118.954C256.28 119.45 257.05 119.699 258.068 119.699C259.086 119.699 259.805 119.45 260.364 118.966C260.923 118.482 261.208 117.862 261.208 117.092C261.208 116.496 261.047 116.012 260.712 115.64C260.376 115.267 259.967 114.982 259.483 114.796C258.999 114.609 258.328 114.386 257.497 114.175C256.466 113.902 255.647 113.641 255.026 113.368C254.406 113.095 253.884 112.673 253.438 112.102C253.003 111.531 252.78 110.761 252.78 109.781C252.78 108.924 252.991 108.179 253.425 107.522C253.86 106.864 254.468 106.355 255.25 105.995C256.032 105.635 256.926 105.461 257.944 105.461C259.408 105.461 260.6 105.821 261.531 106.553C262.462 107.286 262.996 108.254 263.107 109.458H260.873C260.799 108.862 260.488 108.341 259.93 107.881C259.383 107.422 258.651 107.199 257.732 107.199C256.876 107.199 256.181 107.422 255.647 107.857C255.113 108.291 254.84 108.912 254.84 109.706C254.84 110.277 255.002 110.736 255.324 111.096C255.647 111.456 256.044 111.73 256.516 111.916C256.988 112.102 257.646 112.313 258.49 112.549C259.52 112.834 260.352 113.107 260.972 113.393C261.593 113.666 262.139 114.1 262.586 114.671C263.033 115.242 263.256 116.024 263.256 117.017C263.256 117.775 263.058 118.495 262.648 119.165C262.251 119.835 261.643 120.381 260.861 120.803C260.066 121.213 259.135 121.424 258.068 121.424C257 121.424 256.119 121.238 255.3 120.878Z" fill="white"/>
<path d="M268.73 110.687V117.911C268.73 118.507 268.854 118.929 269.115 119.177C269.376 119.426 269.81 119.55 270.431 119.55H271.933V121.275H270.096C268.966 121.275 268.109 121.014 267.538 120.493C266.967 119.972 266.694 119.115 266.694 117.924V110.699H265.105V109.023H266.694V105.933H268.73V109.023H271.933V110.699H268.73V110.687Z" fill="white"/>
<path d="M276.625 120.692C275.694 120.171 274.962 119.426 274.428 118.47C273.894 117.514 273.634 116.397 273.634 115.119C273.634 113.84 273.907 112.76 274.453 111.792C274.999 110.836 275.744 110.091 276.675 109.57C277.618 109.061 278.673 108.8 279.828 108.8C280.982 108.8 282.05 109.061 282.981 109.57C283.924 110.091 284.657 110.824 285.203 111.779C285.749 112.735 286.022 113.852 286.022 115.119C286.022 116.385 285.749 117.502 285.19 118.47C284.632 119.438 283.875 120.171 282.919 120.692C281.963 121.213 280.908 121.474 279.741 121.474C278.574 121.474 277.544 121.213 276.613 120.692H276.625ZM281.802 119.165C282.447 118.818 282.956 118.309 283.353 117.614C283.75 116.931 283.949 116.087 283.949 115.106C283.949 114.125 283.75 113.294 283.366 112.599C282.981 111.916 282.472 111.395 281.839 111.059C281.218 110.724 280.535 110.551 279.803 110.551C279.071 110.551 278.376 110.724 277.755 111.059C277.134 111.395 276.638 111.904 276.265 112.599C275.893 113.281 275.707 114.125 275.707 115.106C275.707 116.087 275.893 116.956 276.253 117.638C276.613 118.321 277.109 118.83 277.718 119.178C278.326 119.513 278.996 119.674 279.729 119.674C280.461 119.674 281.144 119.5 281.789 119.165H281.802Z" fill="white"/>
<path d="M292.29 109.359C292.96 108.974 293.767 108.775 294.71 108.775V110.873H294.177C291.893 110.873 290.751 112.115 290.751 114.585V121.251H288.715V108.986H290.751V110.972C291.111 110.277 291.62 109.731 292.29 109.346V109.359Z" fill="white"/>
<path d="M308.192 115.901H298.385C298.46 117.117 298.869 118.048 299.627 118.731C300.384 119.413 301.29 119.749 302.37 119.749C303.251 119.749 303.983 119.55 304.579 119.14C305.163 118.731 305.585 118.185 305.821 117.489H308.018C307.683 118.669 307.037 119.624 306.044 120.369C305.063 121.114 303.835 121.474 302.37 121.474C301.203 121.474 300.16 121.213 299.242 120.692C298.323 120.171 297.603 119.426 297.082 118.47C296.56 117.514 296.3 116.397 296.3 115.119C296.3 113.84 296.56 112.735 297.057 111.779C297.566 110.824 298.273 110.091 299.192 109.57C300.111 109.061 301.166 108.8 302.357 108.8C303.549 108.8 304.555 109.061 305.448 109.557C306.342 110.066 307.037 110.762 307.521 111.643C308.005 112.524 308.254 113.53 308.254 114.659C308.254 115.044 308.229 115.454 308.192 115.888V115.901ZM305.634 112.239C305.287 111.68 304.828 111.258 304.232 110.96C303.648 110.675 302.99 110.526 302.27 110.526C301.24 110.526 300.371 110.861 299.639 111.506C298.919 112.164 298.497 113.07 298.398 114.237H306.143C306.143 113.468 305.97 112.797 305.634 112.239Z" fill="white"/>
<path d="M187.549 86.208H167.217C165.553 86.208 164.2 87.5734 164.2 89.2244V123.646C164.2 125.297 165.553 126.65 167.217 126.65H187.549C189.213 126.65 190.566 125.297 190.566 123.646V89.2244C190.566 87.5734 189.213 86.208 187.549 86.208Z" fill="white"/>
<path d="M189.138 91.0737H165.652V119.45H189.138V91.0737Z" fill="black"/>
<path d="M182.199 88.0205H172.567C172.182 88.0205 171.859 88.3432 171.859 88.7281C171.859 89.1129 172.182 89.4356 172.567 89.4356H182.199C182.584 89.4356 182.907 89.1253 182.907 88.7281C182.907 88.3308 182.584 88.0205 182.199 88.0205Z" fill="black"/>
<path d="M175.087 122.876C175.087 121.598 176.117 120.567 177.396 120.567C178.674 120.567 179.717 121.61 179.717 122.876C179.717 124.142 178.674 125.185 177.396 125.185C176.117 125.185 175.087 124.142 175.087 122.876Z" fill="black"/>
<path d="M160.935 0.64502H342.005C346.312 0.64502 349.8 4.1455 349.8 8.45283V58.403C349.8 62.7103 346.3 66.2108 341.992 66.2108H160.923C156.616 66.2108 153.115 62.7103 153.115 58.403V8.45283C153.128 4.1455 156.628 0.64502 160.935 0.64502Z" fill="black"/>
<path d="M214.398 24.4038H211.754L211.27 25.7445H210.438L212.636 19.7241H213.554L215.739 25.7445H214.907L214.423 24.4038H214.398ZM214.175 23.7584L213.082 20.6923L211.99 23.7584H214.187H214.175Z" fill="white"/>
<path d="M221.437 25.757H220.642L217.464 20.9283V25.757H216.67V19.687H217.464L220.642 24.5033V19.687H221.437V25.757Z" fill="white"/>
<path d="M226.389 20.0594C226.873 20.3077 227.245 20.6552 227.506 21.1145C227.767 21.5738 227.891 22.1076 227.891 22.7282C227.891 23.3489 227.754 23.8826 227.506 24.3419C227.245 24.8012 226.873 25.1488 226.389 25.3846C225.905 25.6205 225.334 25.7446 224.676 25.7446H222.789V19.687H224.676C225.334 19.687 225.905 19.8111 226.389 20.0594ZM226.463 24.4785C226.873 24.0688 227.084 23.4854 227.084 22.7282C227.084 21.971 226.873 21.3876 226.463 20.9656C226.054 20.5435 225.458 20.3325 224.676 20.3325H223.583V25.0991H224.676C225.458 25.0991 226.054 24.8881 226.463 24.4785Z" fill="white"/>
<path d="M232.124 25.7568L230.684 23.2742H229.728V25.7568H228.934V19.6992H230.895C231.354 19.6992 231.739 19.7737 232.049 19.9351C232.372 20.0964 232.595 20.3075 232.757 20.5681C232.918 20.8412 232.993 21.1391 232.993 21.4867C232.993 21.9087 232.869 22.2687 232.633 22.5915C232.384 22.9142 232.024 23.1252 231.553 23.2245L233.08 25.7692H232.124V25.7568ZM229.728 22.6411H230.895C231.317 22.6411 231.64 22.5294 231.863 22.3184C232.074 22.1074 232.186 21.8219 232.186 21.4743C232.186 21.1267 232.074 20.8412 231.863 20.6426C231.652 20.444 231.329 20.3447 230.895 20.3447H229.728V22.6411Z" fill="white"/>
<path d="M235.426 25.4216C234.954 25.1609 234.594 24.7885 234.321 24.3169C234.048 23.8452 233.911 23.3114 233.911 22.7156C233.911 22.1197 234.048 21.5984 234.321 21.1143C234.594 20.6426 234.954 20.2702 235.426 20.0095C235.885 19.7488 236.406 19.6123 236.965 19.6123C237.523 19.6123 238.045 19.7488 238.516 20.0095C238.988 20.2702 239.348 20.6426 239.609 21.1143C239.869 21.586 240.006 22.1197 240.006 22.7156C240.006 23.3114 239.869 23.8452 239.609 24.3169C239.336 24.7885 238.976 25.1485 238.516 25.4216C238.057 25.6823 237.536 25.8188 236.965 25.8188C236.394 25.8188 235.885 25.6823 235.426 25.4216ZM238.107 24.8258C238.442 24.6272 238.715 24.3541 238.914 23.9817C239.112 23.6217 239.199 23.1873 239.199 22.7156C239.199 22.2439 239.1 21.8094 238.914 21.437C238.715 21.077 238.454 20.7915 238.119 20.5929C237.784 20.3943 237.399 20.295 236.977 20.295C236.555 20.295 236.17 20.3943 235.835 20.5929C235.5 20.7915 235.227 21.0646 235.041 21.437C234.842 21.797 234.743 22.219 234.743 22.7156C234.743 23.2121 234.842 23.6217 235.041 23.9817C235.239 24.3417 235.5 24.6272 235.835 24.8258C236.17 25.0244 236.555 25.1237 236.977 25.1237C237.399 25.1237 237.784 25.0244 238.119 24.8258H238.107Z" fill="white"/>
<path d="M241.843 19.687V25.7446H241.049V19.687H241.843Z" fill="white"/>
<path d="M246.796 20.0594C247.28 20.3077 247.653 20.6552 247.913 21.1145C248.174 21.5738 248.298 22.1076 248.298 22.7282C248.298 23.3489 248.174 23.8826 247.913 24.3419C247.653 24.8012 247.28 25.1488 246.796 25.3846C246.312 25.6205 245.741 25.7446 245.083 25.7446H243.196V19.687H245.083C245.741 19.687 246.312 19.8111 246.796 20.0594ZM246.871 24.4785C247.28 24.0688 247.491 23.4854 247.491 22.7282C247.491 21.971 247.28 21.3876 246.871 20.9656C246.461 20.5435 245.865 20.3325 245.083 20.3325H243.991V25.0991H245.083C245.865 25.0991 246.461 24.8881 246.871 24.4785Z" fill="white"/>
<path d="M255.25 24.4038H252.606L252.122 25.7445H251.29L253.487 19.7241H254.393L256.578 25.7445H255.746L255.262 24.4038H255.25ZM255.014 23.7584L253.922 20.6923L252.829 23.7584H255.014Z" fill="white"/>
<path d="M261.059 22.728C260.712 23.0632 260.19 23.2245 259.483 23.2245H258.316V25.7568H257.521V19.6992H259.483C260.165 19.6992 260.687 19.8606 261.047 20.1957C261.407 20.5309 261.581 20.9529 261.581 21.4743C261.581 21.9956 261.407 22.3929 261.059 22.728ZM260.451 22.2811C260.662 22.0825 260.761 21.8094 260.761 21.4619C260.761 20.7171 260.327 20.3447 259.47 20.3447H258.303V22.5666H259.47C259.905 22.5666 260.24 22.4673 260.439 22.2811H260.451Z" fill="white"/>
<path d="M266.087 22.728C265.739 23.0632 265.218 23.2245 264.51 23.2245H263.343V25.7568H262.549V19.6992H264.51C265.193 19.6992 265.714 19.8606 266.074 20.1957C266.434 20.5309 266.608 20.9529 266.608 21.4743C266.608 21.9956 266.434 22.3929 266.087 22.728ZM265.491 22.2811C265.702 22.0825 265.801 21.8094 265.801 21.4619C265.801 20.7171 265.367 20.3447 264.51 20.3447H263.343V22.5666H264.51C264.945 22.5666 265.28 22.4673 265.478 22.2811H265.491Z" fill="white"/>
<path d="M271.126 25.4216C270.667 25.1609 270.294 24.7885 270.034 24.3169C269.761 23.8452 269.624 23.3114 269.624 22.7156C269.624 22.1197 269.761 21.5984 270.034 21.1143C270.307 20.6426 270.667 20.2702 271.126 20.0095C271.598 19.7488 272.107 19.6123 272.665 19.6123C273.224 19.6123 273.745 19.7488 274.217 20.0095C274.676 20.2702 275.049 20.6426 275.309 21.1143C275.57 21.586 275.706 22.1197 275.706 22.7156C275.706 23.3114 275.57 23.8452 275.309 24.3169C275.036 24.7885 274.676 25.1485 274.217 25.4216C273.745 25.6823 273.236 25.8188 272.665 25.8188C272.094 25.8188 271.585 25.6823 271.126 25.4216ZM273.807 24.8258C274.142 24.6272 274.415 24.3541 274.602 23.9817C274.8 23.6217 274.887 23.1873 274.887 22.7156C274.887 22.2439 274.788 21.8094 274.602 21.437C274.403 21.077 274.142 20.7915 273.807 20.5929C273.472 20.3943 273.087 20.295 272.665 20.295C272.243 20.295 271.858 20.3943 271.523 20.5929C271.188 20.7915 270.915 21.0646 270.729 21.437C270.543 21.8094 270.443 22.219 270.443 22.7156C270.443 23.2121 270.543 23.6217 270.729 23.9817C270.915 24.3417 271.188 24.6272 271.536 24.8258C271.871 25.0244 272.256 25.1237 272.678 25.1237C273.1 25.1237 273.484 25.0244 273.82 24.8258H273.807Z" fill="white"/>
<path d="M281.516 25.757H280.721L277.543 20.9283V25.757H276.749V19.687H277.543L280.721 24.5033V19.687H281.516V25.757Z" fill="white"/>
<path d="M220.22 39.5598C219.786 38.6537 219.165 37.9461 218.346 37.4496C217.527 36.9531 216.571 36.7048 215.478 36.7048C214.386 36.7048 213.405 36.9531 212.537 37.4496C211.668 37.9461 210.972 38.6661 210.476 39.5971C209.979 40.528 209.731 41.608 209.731 42.8244C209.731 44.0409 209.979 45.1209 210.476 46.0518C210.972 46.9704 211.668 47.6904 212.537 48.1869C213.405 48.6834 214.386 48.9317 215.478 48.9317C217.005 48.9317 218.247 48.4724 219.24 47.5662C220.22 46.6601 220.804 45.4312 220.965 43.8796H214.746V42.2286H223.137V43.7927C223.013 45.0712 222.616 46.2504 221.933 47.318C221.251 48.3855 220.344 49.2296 219.227 49.8502C218.11 50.4709 216.869 50.7812 215.491 50.7812C214.039 50.7812 212.723 50.4461 211.531 49.7633C210.339 49.0806 209.396 48.1372 208.701 46.9332C208.006 45.7167 207.658 44.3637 207.658 42.8369C207.658 41.3101 208.006 39.9446 208.701 38.7281C209.396 37.5117 210.339 36.5683 211.531 35.8855C212.723 35.2028 214.039 34.8677 215.491 34.8677C217.142 34.8677 218.607 35.2773 219.885 36.0966C221.164 36.9158 222.095 38.0702 222.678 39.5722H220.22V39.5598Z" fill="white"/>
<path d="M228.04 50.0489C227.109 49.5276 226.377 48.7828 225.843 47.827C225.31 46.8712 225.049 45.754 225.049 44.4755C225.049 43.1969 225.322 42.117 225.868 41.1488C226.414 40.193 227.159 39.4482 228.09 38.9268C229.033 38.4179 230.076 38.1572 231.243 38.1572C232.41 38.1572 233.465 38.4179 234.396 38.9268C235.339 39.4482 236.072 40.1806 236.618 41.1364C237.164 42.0922 237.437 43.2093 237.437 44.4755C237.437 45.7416 237.164 46.8588 236.593 47.827C236.034 48.7952 235.277 49.5276 234.321 50.0489C233.366 50.5703 232.31 50.831 231.144 50.831C229.977 50.831 228.959 50.5703 228.028 50.0489H228.04ZM233.229 48.5345C233.875 48.187 234.383 47.678 234.781 46.9829C235.178 46.3002 235.376 45.4561 235.376 44.4755C235.376 43.4948 235.178 42.6632 234.793 41.968C234.408 41.2853 233.899 40.764 233.266 40.4288C232.633 40.0937 231.963 39.9199 231.231 39.9199C230.498 39.9199 229.803 40.0937 229.182 40.4288C228.562 40.764 228.065 41.2729 227.693 41.968C227.32 42.6508 227.134 43.4948 227.134 44.4755C227.134 45.4561 227.32 46.325 227.68 47.0077C228.04 47.6905 228.537 48.1994 229.145 48.547C229.753 48.8821 230.424 49.0435 231.156 49.0435C231.888 49.0435 232.571 48.8697 233.217 48.5345H233.229Z" fill="white"/>
<path d="M242.366 50.0489C241.435 49.5276 240.702 48.7828 240.168 47.827C239.635 46.8712 239.374 45.754 239.374 44.4755C239.374 43.1969 239.647 42.117 240.193 41.1488C240.739 40.193 241.484 39.4482 242.415 38.9268C243.359 38.4179 244.401 38.1572 245.568 38.1572C246.735 38.1572 247.79 38.4179 248.721 38.9268C249.664 39.4482 250.397 40.1806 250.943 41.1364C251.489 42.0922 251.762 43.2093 251.762 44.4755C251.762 45.7416 251.489 46.8588 250.918 47.827C250.36 48.7952 249.602 49.5276 248.647 50.0489C247.691 50.5703 246.636 50.831 245.469 50.831C244.302 50.831 243.284 50.5703 242.353 50.0489H242.366ZM247.542 48.5345C248.187 48.187 248.696 47.678 249.093 46.9829C249.491 46.3002 249.689 45.4561 249.689 44.4755C249.689 43.4948 249.491 42.6632 249.106 41.968C248.721 41.2853 248.212 40.764 247.579 40.4288C246.946 40.0937 246.276 39.9199 245.543 39.9199C244.811 39.9199 244.116 40.0937 243.495 40.4288C242.875 40.764 242.378 41.2729 242.006 41.968C241.633 42.6508 241.447 43.4948 241.447 44.4755C241.447 45.4561 241.633 46.325 241.993 47.0077C242.353 47.6905 242.85 48.1994 243.458 48.547C244.066 48.8821 244.736 49.0435 245.469 49.0435C246.201 49.0435 246.884 48.8697 247.529 48.5345H247.542Z" fill="white"/>
<path d="M262.313 38.8646C263.107 39.3239 263.703 39.9073 264.088 40.6149V38.3805H266.148V50.9177C266.148 52.0349 265.912 53.0279 265.428 53.9093C264.956 54.7782 264.274 55.4609 263.38 55.9574C262.499 56.4539 261.456 56.7022 260.277 56.7022C258.663 56.7022 257.322 56.3174 256.243 55.5602C255.163 54.803 254.53 53.7603 254.343 52.4569H256.354C256.578 53.2017 257.037 53.7976 257.744 54.2568C258.44 54.7161 259.284 54.9396 260.277 54.9396C261.394 54.9396 262.312 54.592 263.02 53.8844C263.728 53.1893 264.088 52.1963 264.088 50.9301V48.3606C263.69 49.0806 263.082 49.6764 262.3 50.1481C261.506 50.6322 260.587 50.8681 259.532 50.8681C258.477 50.8681 257.447 50.595 256.565 50.0612C255.684 49.5275 254.976 48.7703 254.48 47.802C253.971 46.8338 253.723 45.7291 253.723 44.4878C253.723 43.2465 253.983 42.1293 254.48 41.1859C254.989 40.2425 255.684 39.5101 256.565 38.9764C257.447 38.4426 258.44 38.1943 259.532 38.1943C260.624 38.1943 261.518 38.4302 262.313 38.8895V38.8646ZM263.529 42.0672C263.157 41.3845 262.648 40.8507 262.015 40.4908C261.382 40.1308 260.686 39.9446 259.917 39.9446C259.147 39.9446 258.464 40.1184 257.831 40.4783C257.198 40.8383 256.702 41.3597 256.329 42.0424C255.957 42.7251 255.771 43.532 255.771 44.4629C255.771 45.3939 255.957 46.2132 256.329 46.9083C256.702 47.6034 257.198 48.1248 257.831 48.4972C258.452 48.8572 259.147 49.0434 259.917 49.0434C260.686 49.0434 261.382 48.8572 262.015 48.4972C262.648 48.1248 263.157 47.6034 263.529 46.9083C263.901 46.2132 264.088 45.4063 264.088 44.4753C264.088 43.5444 263.901 42.7499 263.529 42.0548V42.0672Z" fill="white"/>
<path d="M271.623 34.0732V50.6323H269.587V34.0732H271.623Z" fill="white"/>
<path d="M286.221 45.2575H276.414C276.489 46.474 276.899 47.405 277.656 48.0877C278.413 48.7704 279.319 49.1055 280.399 49.1055C281.28 49.1055 282.013 48.9069 282.609 48.4973C283.192 48.0877 283.614 47.5415 283.85 46.8464H286.047C285.712 48.0256 285.066 48.9814 284.073 49.7262C283.093 50.471 281.864 50.831 280.399 50.831C279.232 50.831 278.19 50.5703 277.271 50.0489C276.352 49.5276 275.632 48.7828 275.111 47.827C274.59 46.8712 274.329 45.754 274.329 44.4755C274.329 43.1969 274.59 42.0922 275.086 41.1364C275.595 40.1806 276.303 39.4482 277.221 38.9268C278.14 38.4179 279.195 38.1572 280.387 38.1572C281.578 38.1572 282.584 38.4179 283.478 38.9144C284.371 39.4234 285.066 40.1185 285.55 40.9998C286.035 41.8811 286.283 42.8866 286.283 44.0162C286.283 44.401 286.258 44.8106 286.221 45.2451V45.2575ZM283.664 41.6081C283.316 41.0495 282.857 40.6274 282.261 40.3295C281.678 40.044 281.02 39.8951 280.3 39.8951C279.269 39.8951 278.401 40.2302 277.668 40.8757C276.936 41.5212 276.526 42.4397 276.427 43.6066H284.173C284.173 42.837 283.999 42.1666 283.664 41.6081Z" fill="white"/>
<path d="M304.046 42.8369C303.152 43.6934 301.799 44.1279 299.987 44.1279H296.983V50.6447H294.947V35.0415H299.987C301.75 35.0415 303.078 35.4635 304.009 36.32C304.927 37.1766 305.387 38.2689 305.387 39.6095C305.387 40.9501 304.94 41.9804 304.058 42.8369H304.046ZM302.482 41.7073C303.016 41.2108 303.289 40.5157 303.289 39.6095C303.289 37.6855 302.184 36.7173 299.975 36.7173H296.971V42.4397H299.975C301.104 42.4397 301.936 42.1914 302.482 41.6949V41.7073Z" fill="white"/>
<path d="M309.929 34.0732V50.6323H307.894V34.0732H309.929Z" fill="white"/>
<path d="M313.405 41.161C313.914 40.2176 314.609 39.4852 315.491 38.9515C316.372 38.4177 317.365 38.1694 318.457 38.1694C319.55 38.1694 320.468 38.4053 321.25 38.8646C322.045 39.3238 322.628 39.9073 323.013 40.6148V38.3805H325.074V50.6446H323.013V48.3606C322.616 49.0805 322.008 49.6639 321.213 50.1356C320.419 50.6073 319.488 50.8432 318.433 50.8432C317.378 50.8432 316.36 50.5701 315.478 50.0363C314.597 49.5026 313.902 48.7454 313.393 47.7771C312.884 46.8089 312.636 45.7042 312.636 44.4629C312.636 43.2215 312.896 42.1044 313.393 41.161H313.405ZM322.467 42.0671C322.094 41.3844 321.586 40.8507 320.952 40.4907C320.319 40.1307 319.624 39.9445 318.855 39.9445C318.085 39.9445 317.402 40.1183 316.769 40.4783C316.136 40.8382 315.64 41.3596 315.267 42.0423C314.895 42.725 314.709 43.5319 314.709 44.4629C314.709 45.3938 314.895 46.2131 315.267 46.9082C315.64 47.6034 316.136 48.1247 316.769 48.4971C317.39 48.8571 318.085 49.0433 318.855 49.0433C319.624 49.0433 320.319 48.8571 320.952 48.4971C321.586 48.1247 322.094 47.6034 322.467 46.9082C322.839 46.2131 323.025 45.4062 323.025 44.4753C323.025 43.5443 322.839 42.7499 322.467 42.0547V42.0671Z" fill="white"/>
<path d="M339.1 38.3682L331.714 56.4043H329.617L332.037 50.4957L327.097 38.3682H329.356L333.204 48.2986L337.015 38.3682H339.113H339.1Z" fill="white"/>
<path d="M164.213 54.5175V12.3379L202.135 32.8319L164.213 54.5175Z" fill="#00DBFF"/>
<path d="M164.213 12.3379L191.038 39.1749L202.135 32.8319L164.213 12.3379Z" fill="#00EE87"/>
<path d="M190.826 26.7124L164.213 54.5177L202.135 32.832L190.826 26.7124Z" fill="#FA4F5A"/>
<path d="M191.038 39.1751L202.135 32.832L190.827 26.7124L184.844 32.9686L191.038 39.1751Z" fill="#FFD400"/>
</svg>
