<svg width="128" height="115" viewBox="0 0 128 115" fill="none" xmlns="http://www.w3.org/2000/svg">
<path fill-rule="evenodd" clip-rule="evenodd" d="M98.9184 0C100.9 0 102.854 0.461344 104.627 1.3475C106.399 2.23365 107.94 3.52027 109.129 5.10547L126.284 27.978C127.143 29.1072 127.601 30.4905 127.586 31.9092H127.637V38.291C127.637 44.5092 125.368 50.5137 121.255 55.1773V102.109C121.255 105.494 119.91 108.741 117.516 111.135C115.123 113.528 111.876 114.873 108.491 114.873H19.1455C15.7604 114.873 12.5139 113.528 10.1202 111.135C7.72657 108.741 6.38183 105.494 6.38183 102.109V55.1773C2.26889 50.5137 -0.000386535 44.5092 4.93845e-08 38.291V31.9092H0.0510541C0.0359738 30.4905 0.494067 29.1072 1.35295 27.978L18.5073 5.10547C19.6962 3.52027 21.2379 2.23365 23.0102 1.3475C24.7825 0.461344 26.7368 0 28.7183 0H98.9184ZM82.9638 55.1773C80.5682 57.8933 77.622 60.0685 74.321 61.5583C71.0201 63.0481 67.4399 63.8185 63.8183 63.8183C60.1968 63.8185 56.6166 63.0481 53.3156 61.5583C50.0147 60.0685 47.0685 57.8933 44.6728 55.1773C41.7379 58.5149 37.9805 61.0262 33.7742 62.4615C29.5679 63.8968 25.0592 64.2062 20.6963 63.3589L19.1455 63.0142V102.109H108.491V63.0142L106.94 63.3589C102.577 64.2054 98.0678 63.8951 93.8615 62.4586C89.6551 61.0222 85.8981 58.5161 82.9638 55.1773ZM114.873 38.291H89.3457C89.3308 41.6031 90.6041 44.7912 92.8964 47.1819C95.1887 49.5725 98.3205 50.9785 101.63 51.1028C104.94 51.2271 108.169 50.0599 110.634 47.8479C113.099 45.6358 114.608 42.5521 114.841 39.2483L114.873 38.291ZM76.582 38.291H51.0547C51.0398 41.6031 52.3131 44.7912 54.6054 47.1819C56.8977 49.5725 60.0295 50.9785 63.3393 51.1028C66.6491 51.2271 69.8775 50.0599 72.3427 47.8479C74.8078 45.6358 76.3165 42.5521 76.5501 39.2483L76.582 38.291ZM38.291 38.291H12.7637C12.7488 41.6031 14.0221 44.7912 16.3144 47.1819C18.6067 49.5725 21.7385 50.9785 25.0483 51.1028C28.3581 51.2271 31.5865 50.0599 34.0517 47.8479C36.5168 45.6358 38.0255 42.5521 38.2591 39.2483L38.291 38.291ZM98.9184 12.7637H28.7183L19.1455 25.5273H108.491L98.9184 12.7637Z" fill="#EF7D19"/>
</svg>
