<svg width="98" height="98" viewBox="0 0 98 98" fill="none" xmlns="http://www.w3.org/2000/svg">
<path d="M45.9459 6.26605L6.26389 45.948C5.45462 46.7576 5 47.8553 5 49C5 50.1447 5.45462 51.2424 6.26389 52.052L45.948 91.7361C46.7576 92.5454 47.8553 93 49 93C50.1447 93 51.2424 92.5454 52.052 91.7361L91.7339 52.0541C92.5432 51.2446 92.9978 50.1468 92.9978 49.0022C92.9978 47.8575 92.5432 46.7597 91.7339 45.9502L52.0498 6.26389C51.2403 5.45462 50.1425 5 48.9978 5C47.8532 5 46.7554 5.45462 45.9459 6.26389V6.26605Z" stroke="#F77F00" stroke-width="9" stroke-linejoin="round"/>
<path d="M35.5879 49.0001H61.4886M48.5382 36.0498V61.9505" stroke="#F77F00" stroke-width="9" stroke-linecap="round"/>
</svg>
