<svg width="281" height="40" viewBox="0 0 281 40" fill="none" xmlns="http://www.w3.org/2000/svg">
<path d="M33.9408 5.17703V39.3814L25.4552 34.4979L16.9696 39.3814L8.48404 34.4979L0 39.3814V5.17703C0 2.55346 2.12179 0.427246 4.7399 0.427246H29.2009C31.819 0.427246 33.9408 2.55346 33.9408 5.17703Z" fill="#FF772C"/>
<path d="M20.8163 9.20874L22.6791 9.8351C20.6566 13.2436 18.8713 16.2915 17.3219 18.9819C15.7724 21.6723 14.3734 24.156 13.1248 26.433L11.1938 25.8983C12.8301 23.1815 14.4044 20.5408 15.9198 17.9747C17.4351 15.4102 18.8884 12.9125 20.2828 10.4832C19.6763 11.0754 19.0745 11.5121 18.4758 11.7919C17.8771 12.0732 17.2645 12.2131 16.6348 12.2131C16.3401 12.2131 16.0345 12.1789 15.7197 12.1105C15.4048 12.0421 15.0822 11.9442 14.7487 11.8152C14.8775 12.1727 14.9752 12.5255 15.0434 12.8737C15.1117 13.2234 15.1458 13.5606 15.1458 13.887C15.1458 15.3511 14.727 16.5308 13.891 17.4214C13.0535 18.3135 11.9585 18.7596 10.6013 18.7596C9.2442 18.7596 8.18796 18.3322 7.35817 17.4789C6.52838 16.6256 6.11426 15.5143 6.11426 14.1497C6.11426 12.6778 6.53613 11.4857 7.38144 10.5749C8.22519 9.66414 9.31865 9.20874 10.6587 9.20874C11.1132 9.20874 11.5319 9.25226 11.9135 9.3393C12.2966 9.42634 12.6735 9.56933 13.0442 9.76672C13.7189 10.017 14.3424 10.2035 14.9194 10.3247C15.4948 10.4459 16.0361 10.5065 16.5433 10.5065C17.2397 10.5065 17.9392 10.4009 18.6387 10.1879C19.3397 9.97499 20.0641 9.64859 20.8148 9.20874H20.8163ZM10.4897 10.7008C10.043 10.7008 9.70951 10.934 9.48926 11.4002C9.26902 11.8665 9.16045 12.5784 9.16045 13.5342C9.16045 14.7559 9.29539 15.6838 9.56371 16.3179C9.83204 16.952 10.2213 17.2691 10.7285 17.2691C11.1985 17.2691 11.5428 17.0515 11.763 16.6147C11.9833 16.178 12.0919 15.4895 12.0919 14.5491C12.0919 13.1907 11.9662 12.21 11.7165 11.6069C11.4668 11.0039 11.0573 10.7024 10.4897 10.7024V10.7008ZM23.3383 16.8945C24.7016 16.8945 25.7904 17.3219 26.6047 18.1752C27.419 19.0285 27.8253 20.1662 27.8253 21.5852C27.8253 23.0043 27.4066 24.2244 26.5706 25.1087C25.733 25.9931 24.6411 26.4345 23.2933 26.4345C21.9455 26.4345 20.8675 26.0102 20.0393 25.16C19.2095 24.3098 18.7953 23.2063 18.7953 21.8479C18.7953 20.3838 19.2188 19.1917 20.0672 18.2731C20.9156 17.3546 22.0059 16.8961 23.3398 16.8961L23.3383 16.8945ZM23.1677 18.3633C22.721 18.3633 22.389 18.598 22.1735 19.0689C21.9579 19.5398 21.8493 20.2533 21.8493 21.2091C21.8493 22.4308 21.9811 23.3586 22.2463 23.9928C22.5116 24.6269 22.8978 24.944 23.405 24.944C23.8749 24.944 24.2208 24.7233 24.4441 24.2834C24.6675 23.8436 24.7792 23.1519 24.7792 22.2116C24.7792 20.8532 24.652 19.8725 24.3992 19.2694C24.1448 18.6664 23.7338 18.3648 23.1661 18.3648L23.1677 18.3633Z" fill="white"/>
<path d="M52.833 28.0586C48.9072 28.0586 47.3252 26.7842 47.3252 23.6494V15.0947H44.835V11.8721H47.3252V8.01953H51.6465V11.8721H54.9717V15.0947H51.6465V22.668C51.6465 24.1182 52.2617 24.7627 53.7119 24.7627C54.2686 24.7627 54.5615 24.7334 54.9717 24.6895V27.8682C54.4443 27.9707 53.6533 28.0586 52.833 28.0586ZM62.9258 28.249C59.8496 28.249 57.667 26.3447 57.667 23.415V23.3857C57.667 20.4854 59.9082 18.7861 63.9219 18.5518L67.8184 18.3174V16.9844C67.8184 15.5928 66.8662 14.8018 65.1084 14.8018C63.5703 14.8018 62.5889 15.3438 62.252 16.2959L62.2227 16.3545H58.2676L58.2822 16.2227C58.6191 13.3955 61.2852 11.5205 65.3428 11.5205C69.6201 11.5205 72.0371 13.542 72.0371 16.9844V28H67.8184V25.8613H67.5547C66.7344 27.3555 65.0352 28.249 62.9258 28.249ZM61.8418 23.1514C61.8418 24.3818 62.8818 25.1289 64.3613 25.1289C66.3389 25.1289 67.8184 23.8252 67.8184 22.126V20.9395L64.5664 21.1445C62.7354 21.2617 61.8418 21.9502 61.8418 23.1221V23.1514ZM75.0547 28L80.1084 20.0166L75.0107 11.8721H79.918L82.7744 17.2188H83.0381L85.8945 11.8721H90.5527L85.4697 19.8408L90.582 28H85.8506L82.833 22.668H82.5693L79.5664 28H75.0547ZM99.8691 28.3369C94.9619 28.3369 91.9883 25.1289 91.9883 19.958V19.9434C91.9883 14.8164 94.9912 11.5205 99.6934 11.5205C104.396 11.5205 107.325 14.7432 107.325 19.6211V20.9541H96.2217C96.2656 23.6055 97.6865 25.1436 99.957 25.1436C101.832 25.1436 102.872 24.1475 103.165 23.5322L103.209 23.4443H107.193L107.164 23.5908C106.666 25.6123 104.586 28.3369 99.8691 28.3369ZM99.7666 14.7285C97.9062 14.7285 96.5293 15.9883 96.2656 18.2734H103.224C102.96 15.9297 101.627 14.7285 99.7666 14.7285ZM117.242 28.3369C112.862 28.3369 110.372 26.374 110.064 23.6055L110.05 23.5469H114.254L114.283 23.6055C114.62 24.6016 115.602 25.3193 117.286 25.3193C118.927 25.3193 120.04 24.6162 120.04 23.5469V23.5176C120.04 22.6533 119.396 22.1113 117.755 21.7451L115.06 21.1738C111.983 20.5146 110.46 19.0059 110.46 16.5889V16.5742C110.46 13.542 113.155 11.5205 117.184 11.5205C121.417 11.5205 123.761 13.6299 123.937 16.2227V16.2812H119.967L119.952 16.208C119.718 15.3438 118.766 14.5381 117.169 14.5381C115.689 14.5381 114.635 15.2266 114.635 16.3105V16.3252C114.635 17.1895 115.235 17.6875 116.905 18.0537L119.586 18.625C122.809 19.3135 124.317 20.6611 124.317 23.0488V23.0635C124.317 26.2568 121.373 28.3369 117.242 28.3369ZM130.895 28.3662C129.4 28.3662 128.316 27.2676 128.316 25.8174C128.316 24.3672 129.4 23.2832 130.895 23.2832C132.403 23.2832 133.473 24.3672 133.473 25.8174C133.473 27.2676 132.403 28.3662 130.895 28.3662ZM143.419 28.249C139.391 28.249 136.871 25.0996 136.871 19.9434V19.9141C136.871 14.7285 139.332 11.6084 143.419 11.6084C145.631 11.6084 147.433 12.6924 148.238 14.4502H148.502V5.70508H152.779V28H148.502V25.4951H148.238C147.403 27.2383 145.689 28.249 143.419 28.249ZM144.869 24.7041C147.14 24.7041 148.546 22.917 148.546 19.958V19.9287C148.546 16.9697 147.125 15.1533 144.869 15.1533C142.613 15.1533 141.222 16.9697 141.222 19.9141V19.9434C141.222 22.917 142.613 24.7041 144.869 24.7041ZM159.386 9.39648C158.067 9.39648 156.969 8.3418 156.969 7.02344C156.969 5.69043 158.067 4.63574 159.386 4.63574C160.704 4.63574 161.788 5.69043 161.788 7.02344C161.788 8.3418 160.704 9.39648 159.386 9.39648ZM157.232 28V11.8721H161.51V28H157.232ZM172.232 28.3369C167.853 28.3369 165.362 26.374 165.055 23.6055L165.04 23.5469H169.244L169.273 23.6055C169.61 24.6016 170.592 25.3193 172.276 25.3193C173.917 25.3193 175.03 24.6162 175.03 23.5469V23.5176C175.03 22.6533 174.386 22.1113 172.745 21.7451L170.05 21.1738C166.974 20.5146 165.45 19.0059 165.45 16.5889V16.5742C165.45 13.542 168.146 11.5205 172.174 11.5205C176.407 11.5205 178.751 13.6299 178.927 16.2227V16.2812H174.957L174.942 16.208C174.708 15.3438 173.756 14.5381 172.159 14.5381C170.68 14.5381 169.625 15.2266 169.625 16.3105V16.3252C169.625 17.1895 170.226 17.6875 171.896 18.0537L174.576 18.625C177.799 19.3135 179.308 20.6611 179.308 23.0488V23.0635C179.308 26.2568 176.363 28.3369 172.232 28.3369ZM189.415 28.0586C185.489 28.0586 183.907 26.7842 183.907 23.6494V15.0947H181.417V11.8721H183.907V8.01953H188.229V11.8721H191.554V15.0947H188.229V22.668C188.229 24.1182 188.844 24.7627 190.294 24.7627C190.851 24.7627 191.144 24.7334 191.554 24.6895V27.8682C191.026 27.9707 190.235 28.0586 189.415 28.0586ZM195.113 28V11.8721H199.391V14.377H199.654C200.167 12.6338 201.632 11.6084 203.727 11.6084C204.298 11.6084 204.898 11.6963 205.323 11.8135V15.5488C204.679 15.4023 204.02 15.2998 203.36 15.2998C200.929 15.2998 199.391 16.6914 199.391 18.9766V28H195.113ZM210.362 9.39648C209.044 9.39648 207.945 8.3418 207.945 7.02344C207.945 5.69043 209.044 4.63574 210.362 4.63574C211.681 4.63574 212.765 5.69043 212.765 7.02344C212.765 8.3418 211.681 9.39648 210.362 9.39648ZM208.209 28V11.8721H212.486V28H208.209ZM223.897 28.3369C218.858 28.3369 216.002 25.2754 216.002 19.9141V19.8848C216.002 14.582 218.844 11.5205 223.897 11.5205C228.175 11.5205 230.709 13.8496 231.09 17.4531V17.4971H227.105L227.091 17.4678C226.812 15.9004 225.743 14.875 223.912 14.875C221.612 14.875 220.353 16.6621 220.353 19.8848V19.9141C220.353 23.1807 221.627 24.9824 223.912 24.9824C225.67 24.9824 226.71 24.1475 227.091 22.5361L227.12 22.4775H231.075L231.061 22.5654C230.621 26.0811 228.102 28.3369 223.897 28.3369ZM241.271 28.0586C237.345 28.0586 235.763 26.7842 235.763 23.6494V15.0947H233.272V11.8721H235.763V8.01953H240.084V11.8721H243.409V15.0947H240.084V22.668C240.084 24.1182 240.699 24.7627 242.149 24.7627C242.706 24.7627 242.999 24.7334 243.409 24.6895V27.8682C242.882 27.9707 242.091 28.0586 241.271 28.0586Z" fill="#374151"/>
<path d="M250.045 28.3662C248.551 28.3662 247.467 27.2676 247.467 25.8174C247.467 24.3672 248.551 23.2832 250.045 23.2832C251.554 23.2832 252.623 24.3672 252.623 25.8174C252.623 27.2676 251.554 28.3662 250.045 28.3662ZM263.917 28.3369C258.878 28.3369 256.021 25.2754 256.021 19.9141V19.8848C256.021 14.582 258.863 11.5205 263.917 11.5205C268.194 11.5205 270.729 13.8496 271.109 17.4531V17.4971H267.125L267.11 17.4678C266.832 15.9004 265.763 14.875 263.932 14.875C261.632 14.875 260.372 16.6621 260.372 19.8848V19.9141C260.372 23.1807 261.646 24.9824 263.932 24.9824C265.689 24.9824 266.729 24.1475 267.11 22.5361L267.14 22.4775H271.095L271.08 22.5654C270.641 26.0811 268.121 28.3369 263.917 28.3369ZM276.632 9.39648C275.313 9.39648 274.215 8.3418 274.215 7.02344C274.215 5.69043 275.313 4.63574 276.632 4.63574C277.95 4.63574 279.034 5.69043 279.034 7.02344C279.034 8.3418 277.95 9.39648 276.632 9.39648ZM274.479 28V11.8721H278.756V28H274.479Z" fill="#FF772C"/>
</svg>
