<svg width="116" height="97" viewBox="0 0 116 97" fill="none" xmlns="http://www.w3.org/2000/svg">
<path d="M55.0965 0.578125C55.0985 3.11954 55.1014 5.66096 55.1004 8.20238C55.1004 8.78681 55.0483 8.82912 54.4422 8.83798C53.9102 8.84585 53.6443 9.11708 53.6443 9.65166C53.6443 27.7535 53.6443 45.8553 53.6443 63.9571C53.6443 64.9922 53.7456 64.9233 52.6525 64.9351C51.9165 64.944 51.1776 64.8741 50.4456 65.0246C48.1669 65.4949 46.7186 67.5208 46.9419 69.9373C47.1348 72.0212 49.0613 73.744 51.2426 73.7774C51.8654 73.7873 52.4892 73.7892 53.112 73.7765C53.4731 73.7686 53.6541 73.8788 53.6492 74.2802C53.6325 75.5258 53.6423 76.7724 53.6433 78.019C53.6433 78.2443 53.6403 78.4569 53.3196 78.4441C52.1418 78.3939 50.9592 78.5218 49.7844 78.3339C45.7927 77.6953 42.659 74.2428 42.2605 70.2108C41.864 66.1925 44.3946 62.1064 48.3686 60.8126C48.8379 60.6601 48.9963 60.4279 48.9963 59.9339C48.9845 43.1269 48.9865 26.3209 48.9865 9.51392C48.9865 8.85569 48.9717 8.83896 48.3381 8.83798C46.7638 8.83601 45.1896 8.8488 43.6163 8.82912C43.1972 8.8242 42.967 8.959 42.7977 9.35354C40.335 15.1103 37.8605 20.8622 35.385 26.6141C33.7911 30.3175 32.1893 34.018 30.5944 37.7214C28.0786 43.5618 25.5647 49.4032 23.0508 55.2447C22.7065 56.0436 22.7104 56.0456 23.5654 56.0456C27.2216 56.0456 30.8788 56.0574 34.5349 56.0318C35.0692 56.0279 35.1518 56.2197 35.1509 56.6831C35.1371 60.9464 35.143 65.2096 35.143 69.4729C35.143 75.5229 35.143 81.5739 35.143 87.6239C35.143 88.3392 35.1381 88.3441 34.4385 88.3461C33.7823 88.348 33.126 88.3333 32.4707 88.351C32.0968 88.3608 31.9532 88.2221 31.9325 87.8413C31.8322 85.9562 31.4573 84.1281 30.5669 82.4486C28.2891 78.1528 24.7628 75.6409 19.8886 75.1657C13.2777 74.5213 7.30153 79.0944 5.89455 85.4003C5.72631 86.1539 5.60725 86.9174 5.61808 87.6888C5.62496 88.164 5.47246 88.3638 4.96772 88.3569C3.31181 88.3323 1.65591 88.3451 0 88.3431C0 77.5202 0 66.6973 0 55.8744C0.0472273 55.8075 0.101342 55.7455 0.140698 55.6736C2.22952 51.8866 4.32031 48.1006 6.40225 44.3096C8.87085 39.8161 11.3316 35.3177 13.7953 30.8213C16.1173 26.5826 18.4344 22.341 20.7603 18.1053C23.9688 12.26 27.1862 6.41955 30.4006 0.578125C38.6329 0.578125 46.8642 0.578125 55.0965 0.578125Z" fill="#D7D9DC"/>
<path d="M116 89.8175C115.558 89.8293 115.116 89.8499 114.674 89.8499C111.624 89.8519 108.574 89.8499 105.524 89.848C104.881 89.848 104.892 89.8362 105.053 89.2104C106.297 84.3814 105.268 80.0729 101.966 76.3538C99.7743 73.8842 96.98 72.4162 93.7105 71.9754C89.7591 71.4431 86.1876 72.4457 83.0942 74.9753C80.353 77.2176 78.7375 80.129 78.1914 83.6287C77.8962 85.5218 78.0596 87.3872 78.5653 89.2271C78.7414 89.8686 78.6824 89.9414 78.0163 89.8873C77.7555 89.8657 77.4928 89.8529 77.2311 89.8529C72.7052 89.8509 68.1792 89.8539 63.6533 89.847C63.245 89.847 62.8396 89.9198 62.4273 89.8499C61.2703 89.6551 60.4822 88.7824 60.4802 87.6096C60.4733 82.0338 60.4399 76.459 60.49 70.8833C60.5373 65.7119 64.8015 61.2164 69.965 60.7599C71.5048 60.6241 73.0456 60.7019 74.5854 60.691C77.176 60.6733 79.7676 60.6792 82.3582 60.693C82.7577 60.695 82.9791 60.5503 83.168 60.204C84.8849 57.0516 86.6146 53.907 88.3453 50.7625C90.2265 47.3444 92.1195 43.9332 93.985 40.5073C94.2251 40.0665 94.5074 39.9228 94.9925 39.9238C101.994 39.9366 108.996 39.9317 115.998 39.9317V44.556C115.835 44.5678 115.674 44.5905 115.512 44.5905C109.661 44.5915 103.809 44.5983 97.959 44.5797C97.3371 44.5777 96.9701 44.7469 96.6543 45.3304C94.2713 49.7225 91.843 54.09 89.4374 58.4694C89.3183 58.6868 89.0399 58.9269 89.1944 59.1621C89.3301 59.3697 89.6548 59.1965 89.8949 59.2221C89.9923 59.2319 90.0917 59.2221 90.1901 59.2231C94.8272 59.2496 99.4643 59.1945 104.102 59.2752C107.461 59.3333 110.822 59.285 114.182 59.288C114.788 59.288 115.394 59.3047 115.999 59.3136V89.8145L116 89.8175Z" fill="#D7D9DC"/>
<path d="M17.2163 97.0007C16.1497 96.681 15.0881 96.3612 14.1229 95.7738C10.4087 93.5118 8.90822 88.6976 10.692 84.7216C13.1173 79.3171 19.8443 77.735 24.4391 81.4876C28.5921 84.8801 28.5951 91.5529 24.4745 94.9788C23.2289 96.0149 21.8022 96.6052 20.2654 97.0007H17.2153H17.2163Z" fill="#D7D9DC"/>
<path d="M101.171 85.6675C101.128 90.9107 96.921 94.9929 91.604 94.9506C86.5014 94.9093 82.3868 90.6283 82.434 85.4087C82.4793 80.2924 86.7159 76.1719 91.8893 76.2112C97.1079 76.2516 101.215 80.4351 101.172 85.6675H101.171Z" fill="#D7D9DC"/>
</svg>
